<?xml version="1.0" encoding="UTF-8" standalone="no"?>
<svg
   version="1.1"
   id="Layer_1"
   x="0px"
   y="0px"
   viewBox="0 0 1024 1024"
   style="enable-background:new 0 0 1024 1024;"
   xml:space="preserve"
   sodipodi:docname="anvio-in-a-nutshell.svg"
   inkscape:version="1.1-dev (9017afb, 2021-01-01)"
   xmlns:inkscape="http://www.inkscape.org/namespaces/inkscape"
   xmlns:sodipodi="http://sodipodi.sourceforge.net/DTD/sodipodi-0.dtd"
   xmlns:xlink="http://www.w3.org/1999/xlink"
   xmlns="http://www.w3.org/2000/svg"
   xmlns:svg="http://www.w3.org/2000/svg"><defs
   id="defs1169"><linearGradient
     inkscape:collect="always"
     id="linearGradient1175"><stop
       style="stop-color:#e6e7e8;stop-opacity:1;"
       offset="0"
       id="stop1171" /><stop
       style="stop-color:#e6e7e8;stop-opacity:0;"
       offset="1"
       id="stop1173" /></linearGradient><linearGradient
     inkscape:collect="always"
     xlink:href="#linearGradient1175"
     id="linearGradient1177"
     x1="63.435585"
     y1="511.99893"
     x2="960.56278"
     y2="511.99893"
     gradientUnits="userSpaceOnUse" /></defs><sodipodi:namedview
   id="namedview1167"
   pagecolor="#ffffff"
   bordercolor="#666666"
   borderopacity="1.0"
   objecttolerance="10.0"
   gridtolerance="10.0"
   guidetolerance="10.0"
   inkscape:pageshadow="2"
   inkscape:pageopacity="0.0"
   inkscape:pagecheckerboard="0"
   showgrid="false"
   inkscape:zoom="0.23046875"
   inkscape:cx="512"
   inkscape:cy="512"
   inkscape:window-width="1003"
   inkscape:window-height="480"
   inkscape:window-x="0"
   inkscape:window-y="25"
   inkscape:window-maximized="0"
   inkscape:current-layer="Layer_1" />
<style
   type="text/css"
   id="style1082">
	.st0{fill:#E6E7E8;}
	.st1{fill:#8DD1BC;stroke:#000000;stroke-width:8;stroke-linecap:round;stroke-linejoin:round;stroke-miterlimit:10;}
	.st2{fill:#277A5E;stroke:#000000;stroke-width:8;stroke-linecap:round;stroke-linejoin:round;stroke-miterlimit:10;}
	.st3{fill:#FFFFFF;stroke:#000000;stroke-width:8;stroke-linecap:round;stroke-linejoin:round;stroke-miterlimit:10;}
	.st4{fill:none;stroke:#000000;stroke-width:8;stroke-linecap:round;stroke-linejoin:round;stroke-miterlimit:10;}
	.st5{opacity:0.2;}
</style>
<path
   class="st0"
   d="M620.19,927.04C425.5,914.54,100.2,794.17,65.73,422.25S393.38,39.62,600.91,177.33  s379.06,344.24,357.88,542.74C937.61,918.57,696.24,931.93,620.19,927.04z"
   id="path1084"
   style="fill-opacity:1;fill:url(#linearGradient1177)" />
<g
   id="g1106"
   transform="matrix(1.0459445,0,0,1.0460992,-1.9969628,-13.005395)"
   style="stroke-width:0.956001">
	<g
   id="g1094"
   style="stroke-width:0.956001">
		<path
   class="st1"
   d="M 839.62,265.08 H 184.38 c -24.9,0 -45.08,20.18 -45.08,45.08 v 459.11 c 0,24.9 20.18,45.08 45.08,45.08 h 655.24 c 24.9,0 45.08,-20.18 45.08,-45.08 V 310.16 c 0,-24.9 -20.18,-45.08 -45.08,-45.08 z"
   id="path1086" />
		<path
   class="st2"
   d="m 937,814.36 v 15.45 c 0,1.12 -0.03,2.22 -0.09,3.33 -1.72,31.43 -27.77,56.39 -59.63,56.39 H 146.72 c -31.86,0 -57.91,-24.96 -59.63,-56.39 C 87.03,832.03 87,830.93 87,829.81 v -15.45 z"
   id="path1088" />
		<path
   class="st3"
   d="m 596.76,813.83 c 0,10.37 -4.2,19.77 -11.01,26.58 -6.8,6.81 -16.2,11.01 -26.58,11.01 h -93.28 c -20.77,0 -37.59,-16.83 -37.59,-37.59 z"
   id="path1090" />
		<rect
   x="186.7"
   y="314.92001"
   class="st3"
   width="650.59998"
   height="449.57999"
   id="rect1092" />
	</g>
	<line
   class="st4"
   x1="762.12"
   y1="841.59003"
   x2="762.12"
   y2="862.29999"
   id="line1096" />
	<line
   class="st4"
   x1="786.09003"
   y1="841.59003"
   x2="786.09003"
   y2="862.29999"
   id="line1098" />
	<line
   class="st4"
   x1="810.06"
   y1="841.59003"
   x2="810.06"
   y2="862.29999"
   id="line1100" />
	<line
   class="st4"
   x1="834.03003"
   y1="841.59003"
   x2="834.03003"
   y2="862.29999"
   id="line1102" />
	<path
   class="st5"
   d="m 937,814.36 v 15.45 c 0,1.12 -0.03,2.22 -0.09,3.33 H 87.09 C 87.03,832.03 87,830.93 87,829.81 v -15.45 z"
   id="path1104"
   style="stroke-width:0.956001" />
</g>
<g
   id="g1112"
   transform="translate(18)">
	<line
   class="st4"
   x1="937"
   y1="449.48001"
   x2="937"
   y2="490.88"
   id="line1108" />
	<line
   class="st4"
   x1="957.70001"
   y1="470.17999"
   x2="916.29999"
   y2="470.17999"
   id="line1110" />
</g>
<g
   id="g1118">
	<line
   class="st4"
   x1="174.65"
   y1="174.24"
   x2="174.65"
   y2="215.63"
   id="line1114" />
	<line
   class="st4"
   x1="195.35"
   y1="194.94"
   x2="153.95"
   y2="194.94"
   id="line1116" />
</g>
<g
   id="g1124">
	<line
   class="st4"
   x1="95.06"
   y1="666.04"
   x2="95.06"
   y2="707.44"
   id="line1120" />
	<line
   class="st4"
   x1="115.76"
   y1="686.74"
   x2="74.36"
   y2="686.74"
   id="line1122" />
</g>
<circle
   class="st4"
   cx="845.39"
   cy="215.63"
   r="18.13"
   id="circle1126" />
<circle
   class="st4"
   cx="449.92"
   cy="156.1"
   r="18.13"
   id="circle1128" />
<circle
   class="st4"
   cx="95.06"
   cy="409.62"
   r="18.13"
   id="circle1130" />
<circle
   class="st4"
   cx="955"
   cy="730.03998"
   r="18.129999"
   id="circle1132" />
<g
   id="g1164"
   transform="matrix(0.64712584,0,0,0.73899458,190.07456,208.58697)"
   style="stroke-width:1.44606">
	<g
   id="g1150"
   style="stroke-width:1.44606">
		<path
   class="st3"
   d="M 413.43,707.43 C 365.97,631.88 344.56,589.2 322.51,554.88 c -6.53,-10.16 34.27,-14.65 34.27,-14.65 l 20,-29.06 38.12,-5.01 22.99,19.63 c 0,0 -4.82,-2.55 -0.91,8.71 15.21,43.76 64.15,142.76 60.83,158.53 -4.05,19.2 -65.18,44.96 -84.38,14.4 z"
   id="path1134" />
		<circle
   class="st3"
   cx="731.14001"
   cy="386.35999"
   r="36.02"
   id="circle1136" />
		<path
   class="st5"
   d="m 441.78,549.26 -110.71,23.1 c -5.75,-12.14 -13.93,-19.7 -13.93,-19.7 l 55.66,-40.78 42.39,-5.58 18.2,23.1 c 0,0 3.24,7.66 8.39,19.86 z"
   id="path1138"
   style="stroke-width:1.44606" />
		<g
   id="g1146"
   style="stroke-width:1.44606">
			<path
   class="st2"
   d="M 777.24,550.52 717.75,216.38 c -1.42,-8 -9.06,-13.32 -17.06,-11.9 l -25.56,4.55 c -8,1.42 -13.32,9.06 -11.9,17.06 l 59.49,334.14 c 1.42,8 9.06,13.32 17.06,11.9 l 25.56,-4.55 c 8,-1.42 13.32,-9.06 11.9,-17.06 z"
   id="path1140" />
			<path
   class="st2"
   d="m 289.45,369.25 c -30.86,5.5 -51.43,34.97 -45.93,65.83 l 13.15,73.87 c 5.5,30.86 34.97,51.43 65.83,45.93 L 446.47,532.81 413.42,347.18 Z"
   id="path1142" />
			<path
   class="st3"
   d="m 664.05,230.69 57.86,324.95 C 709.77,551 697.78,546.97 686,543.5 575.16,510.77 482.14,526.47 446.48,532.82 L 413.43,347.19 c 35.66,-6.35 128.38,-23.72 221.11,-92.69 9.86,-7.35 19.72,-15.27 29.51,-23.81 z"
   id="path1144" />
		</g>
		<path
   class="st5"
   d="m 664.05,230.69 57.86,324.95 c -7.52,-2.88 -14.98,-5.52 -22.38,-7.94 L 645.79,245.86 c 6.1,-4.82 12.19,-9.88 18.26,-15.17 z"
   id="path1148"
   style="stroke-width:1.44606" />
	</g>
	<line
   class="st4"
   x1="380.38"
   y1="353.53"
   x2="413.01001"
   y2="536.84003"
   id="line1152" />
	<g
   id="g1162"
   style="stroke-width:1.44606">
		<line
   class="st4"
   x1="293.07999"
   y1="413.26001"
   x2="354.17001"
   y2="402.34"
   id="line1154" />
		<line
   class="st4"
   x1="299.16"
   y1="447.31"
   x2="360.26001"
   y2="436.39001"
   id="line1156" />
		<line
   class="st4"
   x1="305.25"
   y1="481.35001"
   x2="366.35001"
   y2="470.44"
   id="line1158" />
		<line
   class="st4"
   x1="311.32999"
   y1="515.40002"
   x2="372.42999"
   y2="504.48001"
   id="line1160" />
	</g>
</g>
</svg>
