<?xml version="1.0" encoding="UTF-8" standalone="no"?>
<svg
   version="1.1"
   id="Layer_1"
   x="0px"
   y="0px"
   viewBox="0 0 1024 1024"
   style="enable-background:new 0 0 1024 1024;"
   xml:space="preserve"
   sodipodi:docname="anvio-community.svg"
   inkscape:version="1.1-dev (9017afb, 2021-01-01)"
   xmlns:inkscape="http://www.inkscape.org/namespaces/inkscape"
   xmlns:sodipodi="http://sodipodi.sourceforge.net/DTD/sodipodi-0.dtd"
   xmlns:xlink="http://www.w3.org/1999/xlink"
   xmlns="http://www.w3.org/2000/svg"
   xmlns:svg="http://www.w3.org/2000/svg"><defs
   id="defs953"><linearGradient
   inkscape:collect="always"
   id="linearGradient959"><stop
     style="stop-color:#e6e7e8;stop-opacity:1;"
     offset="0"
     id="stop955" /><stop
     style="stop-color:#e6e7e8;stop-opacity:0;"
     offset="1"
     id="stop957" /></linearGradient><linearGradient
   inkscape:collect="always"
   xlink:href="#linearGradient959"
   id="linearGradient961"
   x1="63.435585"
   y1="511.99893"
   x2="960.56278"
   y2="511.99893"
   gradientUnits="userSpaceOnUse" />
	
	
	
	
	
</defs><sodipodi:namedview
   id="namedview951"
   pagecolor="#ffffff"
   bordercolor="#666666"
   borderopacity="1.0"
   objecttolerance="10.0"
   gridtolerance="10.0"
   guidetolerance="10.0"
   inkscape:pageshadow="2"
   inkscape:pageopacity="0.0"
   inkscape:pagecheckerboard="0"
   showgrid="false"
   inkscape:zoom="0.75924162"
   inkscape:cx="538.03689"
   inkscape:cy="1217.6624"
   inkscape:window-width="2160"
   inkscape:window-height="3787"
   inkscape:window-x="0"
   inkscape:window-y="25"
   inkscape:window-maximized="1"
   inkscape:current-layer="Layer_1" />
<style
   type="text/css"
   id="style824">
	.st0{fill:#E6E7E8;}
	.st1{fill:none;stroke:#000000;stroke-width:8;stroke-linecap:round;stroke-linejoin:round;}
	.st2{fill:none;stroke:#000000;stroke-width:8;stroke-linecap:round;stroke-linejoin:round;stroke-dasharray:16.961,16.961;}
	.st3{fill:#FFFFFF;stroke:#000000;stroke-width:8;stroke-linecap:round;stroke-linejoin:round;stroke-miterlimit:10;}
	.st4{fill:#277A5E;stroke:#000000;stroke-width:8;stroke-linecap:round;stroke-linejoin:round;stroke-miterlimit:10;}
	.st5{opacity:0.2;}
	.st6{fill:none;stroke:#000000;stroke-width:8;stroke-linecap:round;stroke-linejoin:round;stroke-miterlimit:10;}
	.st7{fill:#8DD1BC;stroke:#000000;stroke-width:8;stroke-linecap:round;stroke-linejoin:round;stroke-miterlimit:10;}
	.st8{fill:none;stroke:#000000;stroke-width:8;stroke-linecap:round;stroke-linejoin:round;stroke-dasharray:16.3645,16.3645;}
</style>
<path
   class="st0"
   d="M620.19,927.04C425.5,914.54,100.2,794.17,65.73,422.25S393.38,39.62,600.91,177.33  s379.06,344.24,357.88,542.74C937.61,918.57,696.24,931.93,620.19,927.04z"
   id="path826"
   style="fill-opacity:1;fill:url(#linearGradient961)" />
<g
   id="g840"
   transform="matrix(1.0346605,0,0,1.0347784,-6.0234121,-17.128743)"
   style="stroke-width:0.966445">
		<g
   id="g838"
   style="stroke-width:0.966445">
			<line
   class="st1"
   x1="610.57001"
   y1="693.97998"
   x2="604.58002"
   y2="688.67999"
   id="line828" />
			<line
   class="st2"
   x1="591.88"
   y1="677.45001"
   x2="522"
   y2="615.65002"
   id="line830" />
			<polyline
   class="st1"
   points="515.65,610.03 509.65,604.73 503.66,610.03    "
   id="polyline832" />
			<line
   class="st2"
   x1="490.95999"
   y1="621.27002"
   x2="421.07999"
   y2="683.06"
   id="line834" />
			<line
   class="st1"
   x1="414.72"
   y1="688.67999"
   x2="408.73001"
   y2="693.97998"
   id="line836" />
		</g>
	</g><g
   id="g864"
   transform="matrix(1.0346605,0,0,1.0347784,-6.0234121,-17.128743)"
   style="stroke-width:0.966445">
		<g
   id="g860"
   style="stroke-width:0.966445">
			<rect
   x="191.88"
   y="509.10999"
   class="st3"
   width="96.940002"
   height="125.14"
   id="rect842" />
			<path
   class="st4"
   d="M 416.55,782.13 H 64.14 c 0,0 5.24,-125.85 19.33,-146.12 12.78,-18.36 45.77,-45.41 93.18,-50.33 4.93,-0.52 10,-0.79 15.23,-0.79 l 48.47,41.12 48.47,-41.12 c 5.23,0 10.3,0.27 15.23,0.79 47.41,4.92 80.4,31.96 93.18,50.33 14.09,20.27 19.32,146.12 19.32,146.12 z"
   id="path844" />
			<g
   id="g850"
   style="stroke-width:0.966445">
				<path
   class="st3"
   d="m 317.25,471.4 c 0,0 4.63,-11.06 13.44,-8.23 8.81,2.83 -3.85,32.57 -4.68,41.07 -0.83,8.5 -4.81,21.29 -13.28,14.61 -8.47,-6.68 4.52,-47.45 4.52,-47.45 z"
   id="path846" />
				<path
   class="st3"
   d="m 163.45,471.4 c 0,0 -4.63,-11.06 -13.44,-8.23 -8.81,2.83 3.85,32.57 4.68,41.07 0.83,8.5 4.81,21.29 13.28,14.61 8.46,-6.68 -4.52,-47.45 -4.52,-47.45 z"
   id="path848" />
			</g>
			<path
   class="st5"
   d="m 288.82,515.18 v 54.46 c -0.26,0.3 -0.52,0.61 -0.77,0.91 -13.57,15.77 -30.71,28.26 -47.7,28.26 -17.31,0 -34.78,-12.98 -48.47,-29.17 v -54.46 z"
   id="path852"
   style="stroke-width:0.966445" />
			<path
   class="st3"
   d="m 318.52,419.01 c -2.88,-18.26 -34.64,-32.35 -78.17,-32.35 -43.53,0 -75.29,14.09 -78.17,32.35 -2.88,18.26 -1.28,63.41 4.16,89.67 5.44,26.26 40.03,76.22 74,76.22 v 0 0 0 0 c 33.97,0 68.56,-49.96 74,-76.22 5.46,-26.26 7.06,-71.42 4.18,-89.67 z"
   id="path854" />
			<polyline
   class="st6"
   points="354.28,713.73 354.28,782.13 126.41,782.13 126.41,713.73    "
   id="polyline856" />
			<path
   class="st5"
   d="m 304.04,585.69 -64.19,63.66 -63.19,-63.66 c 4.93,-0.52 10,-0.79 15.23,-0.79 l 48.47,41.12 48.47,-41.12 c 5.21,0 10.29,0.28 15.21,0.79 z"
   id="path858"
   style="stroke-width:0.966445" />
		</g>
		<path
   class="st7"
   d="m 345.08,424.16 c 0,-7.75 -5.3,-14.26 -12.47,-16.12 4.63,-2.96 7.71,-8.14 7.71,-14.04 0,-9.19 -7.45,-16.64 -16.64,-16.64 -0.67,0 -1.33,0.04 -1.98,0.12 1.26,-2.35 1.98,-5.03 1.98,-7.88 0,-9.19 -7.45,-16.64 -16.64,-16.64 -3.44,0 -6.63,1.04 -9.28,2.83 -0.54,-8.71 -7.77,-15.6 -16.61,-15.6 -5.65,0 -10.63,2.82 -13.64,7.12 -1.85,-7.17 -8.37,-12.47 -16.12,-12.47 -6.82,0 -12.68,4.11 -15.25,9.98 -2.85,-5.07 -8.28,-8.49 -14.51,-8.49 -7.84,0 -14.41,5.43 -16.18,12.73 -3.02,-4.23 -7.96,-7 -13.56,-7 -9.19,0 -16.64,7.45 -16.64,16.64 0,0.58 0.03,1.15 0.09,1.72 -2.22,-1.1 -4.72,-1.72 -7.36,-1.72 -9.19,0 -16.64,7.45 -16.64,16.64 0,3.44 1.04,6.63 2.83,9.29 -0.35,-0.02 -0.71,-0.04 -1.07,-0.04 -9.19,0 -16.64,7.45 -16.64,16.64 0,6.08 3.26,11.4 8.14,14.31 -7.35,1.73 -12.83,8.32 -12.83,16.2 0,8.88 6.95,16.13 15.71,16.62 -3.88,2.03 -6.54,6.09 -6.54,10.78 0,6.72 5.45,12.17 12.17,12.17 1.19,0 2.33,-0.18 3.42,-0.5 3.5,10.79 6.8,18.17 6.8,18.17 0,0 -0.12,-12.08 2.56,-27.48 0.2,0.01 0.4,0.02 0.6,0.02 6.53,0 11.99,-4.51 13.46,-10.59 0.66,0.08 1.33,0.12 2.02,0.12 4.75,0 9.06,-1.93 12.17,-5.04 1.96,1.06 4.2,1.66 6.58,1.66 4.28,0 8.1,-1.94 10.64,-4.99 1.75,5.65 7.01,9.75 13.23,9.75 4.98,0 9.34,-2.64 11.78,-6.59 0.08,0.01 0.16,0.02 0.24,0.04 1.25,6.37 6.84,11.17 13.57,11.17 4.62,0 8.71,-2.26 11.22,-5.74 2.39,4.14 6.87,6.93 11.99,6.93 4.68,0 8.81,-2.32 11.32,-5.88 2.51,3.55 6.64,5.88 11.32,5.88 4.35,0 8.23,-2.01 10.77,-5.15 4.85,7.72 10.74,20.32 10.61,35.89 0,0 3.76,-11.28 7.36,-26.29 0.25,0.02 0.51,0.04 0.76,0.04 6.72,0 12.17,-5.45 12.17,-12.17 0,-4.26 -2.19,-8 -5.5,-10.17 7.37,-1.72 12.88,-8.33 12.88,-16.23 z"
   id="path862" />
	</g><g
   id="g882"
   transform="matrix(1.250536,0,0,1.2489889,162.16913,159.08066)"
   style="stroke-width:0.800152">
		<path
   class="st7"
   d="m 425.89,346.46 c 0,0 0,-30.72 0,-91.97 0,-61.25 18.22,-116.78 81.01,-116.78 62.79,0 79.53,73.42 79.53,119.44 0,46.02 0,89.3 0,89.3 l -56.68,57.53 -59.72,4.56 z"
   id="path866" />
		<g
   id="g878"
   style="stroke-width:0.800152">
			<rect
   x="469.89001"
   y="274.26999"
   class="st3"
   width="74.029999"
   height="106.63"
   id="rect868" />
			<path
   class="st4"
   d="M 641.46,506.91 H 372.34 c 0,0 4,-107.24 14.76,-124.51 9.76,-15.65 34.95,-38.69 71.16,-42.88 3.76,-0.44 7.63,-0.67 11.63,-0.67 l 37.01,35.04 37.01,-35.04 c 3.99,0 7.87,0.23 11.63,0.67 36.2,4.19 61.4,27.23 71.16,42.88 10.76,17.27 14.76,124.51 14.76,124.51 z"
   id="path870" />
			<path
   class="st5"
   d="m 543.91,279.43 v 46.41 c -0.2,0.26 -0.39,0.52 -0.59,0.77 -10.36,13.44 -23.45,24.08 -36.42,24.08 -13.22,0 -26.56,-11.06 -37.01,-24.86 v -46.41 h 74.02 z"
   id="path872"
   style="stroke-width:0.800152" />
			<polyline
   class="st6"
   points="593.91,448.62 593.91,506.91 419.89,506.91 419.89,448.62    "
   id="polyline874" />
			<path
   class="st5"
   d="m 555.54,339.52 -49.02,54.25 -48.26,-54.25 c 3.76,-0.44 7.63,-0.67 11.63,-0.67 l 37.01,35.04 37.01,-35.04 c 4,0 7.87,0.23 11.63,0.67 z"
   id="path876"
   style="stroke-width:0.800152" />
		</g>
		<path
   class="st3"
   d="m 562.39,268.44 c 2.23,-15.2 -4.34,-19.27 -4.34,-19.27 -58.27,3.8 -89.9,-53.26 -89.9,-53.26 -22.01,31.57 -16.75,72.53 -16.75,72.53 v 0 c 0.32,2.29 0.66,4.48 1.03,6.53 4.01,22.38 29.46,64.95 54.46,64.95 v 0 c 25,0 50.46,-42.57 54.46,-64.95 0.37,-2.05 0.72,-4.23 1.04,-6.53 z"
   id="path880" />
	</g><g
   id="g904"
   transform="matrix(0.81176262,0,0,0.81280357,-108.78941,-131.0912)"
   style="opacity:0.745631;stroke-width:1.23109">
		<rect
   x="729.95001"
   y="510.28"
   class="st3"
   width="96.519997"
   height="124.6"
   id="rect884" />
		<path
   class="st4"
   d="M 953.66,782.13 H 602.75 c 0,0 5.21,-125.31 19.25,-145.49 12.72,-18.29 45.57,-45.21 92.78,-50.11 4.91,-0.51 9.95,-0.78 15.16,-0.78 l 48.26,40.94 48.26,-40.94 c 5.21,0 10.26,0.27 15.16,0.78 47.2,4.9 80.06,31.82 92.78,50.11 14.05,20.18 19.26,145.49 19.26,145.49 z"
   id="path886" />
		<g
   id="g892"
   style="stroke-width:1.23109">
			<path
   class="st3"
   d="m 854.78,472.73 c 0,0 4.61,-11.01 13.38,-8.19 8.77,2.82 -3.84,32.43 -4.66,40.89 -0.82,8.46 -4.79,21.2 -13.22,14.55 -8.43,-6.65 4.5,-47.25 4.5,-47.25 z"
   id="path888" />
			<path
   class="st3"
   d="m 701.64,472.73 c 0,0 -4.61,-11.01 -13.38,-8.19 -8.77,2.82 3.84,32.43 4.66,40.89 0.82,8.46 4.79,21.2 13.22,14.55 8.43,-6.65 -4.5,-47.25 -4.5,-47.25 z"
   id="path890" />
		</g>
		<path
   class="st5"
   d="m 826.47,516.32 v 54.23 c -0.26,0.3 -0.51,0.6 -0.77,0.91 -13.51,15.7 -30.58,28.14 -47.49,28.14 -17.24,0 -34.63,-12.92 -48.26,-29.05 v -54.23 z"
   id="path894"
   style="stroke-width:1.23109" />
		<path
   class="st3"
   d="m 856.04,420.56 c -2.87,-18.18 -34.49,-32.21 -77.83,-32.21 -43.35,0 -74.96,14.03 -77.83,32.21 -2.87,18.18 -1.28,63.14 4.15,89.29 5.42,26.15 39.86,75.9 73.69,75.9 v 0 0 0 0 c 33.83,0 68.27,-49.75 73.69,-75.9 5.41,-26.15 7,-71.12 4.13,-89.29 z"
   id="path896" />
		<path
   class="st7"
   d="m 701.49,490.22 c 0,0 -0.39,-38.6 15.59,-65.68 0,0 39.67,35.35 121.08,21.62 0,0 16.99,17.8 16.76,44.06 0,0 15.56,-46.72 13.69,-76.39 -2.63,-41.93 -45.87,-60.16 -72.95,-63.92 -27.07,-3.76 -93.44,-2.02 -87.42,46.44 0,0 -19.38,-2.39 -21.43,27.07 -2.05,29.46 14.68,66.8 14.68,66.8 z"
   id="path898" />
		<polyline
   class="st6"
   points="891.65,714.02 891.65,782.13 664.76,782.13 664.76,714.02   "
   id="polyline900" />
		<path
   class="st5"
   d="m 841.63,586.53 -63.92,63.39 -62.92,-63.39 c 4.91,-0.51 9.95,-0.78 15.16,-0.78 l 48.26,40.94 48.26,-40.94 c 5.21,0 10.25,0.27 15.16,0.78 z"
   id="path902"
   style="stroke-width:1.23109" />
	</g><g
   id="g914"
   transform="matrix(1.0346605,0,0,1.0347784,-6.0234121,-17.128743)"
   style="stroke-width:0.966445">
		<g
   id="g912"
   style="stroke-width:0.966445">
			<line
   class="st1"
   x1="509.64999"
   y1="506.91"
   x2="509.64999"
   y2="514.90997"
   id="line906" />
			<line
   class="st8"
   x1="509.64999"
   y1="531.27002"
   x2="509.64999"
   y2="588.54999"
   id="line908" />
			<line
   class="st1"
   x1="509.64999"
   y1="596.72998"
   x2="509.64999"
   y2="604.72998"
   id="line910" />
		</g>
	</g>
<g
   id="g922">
	<line
   class="st6"
   x1="176.65"
   y1="195.91"
   x2="176.65"
   y2="234.58"
   id="line918" />
	<line
   class="st6"
   x1="195.98"
   y1="215.25"
   x2="157.32"
   y2="215.25"
   id="line920" />
</g>
<g
   id="g928">
	<line
   class="st6"
   x1="382.18"
   y1="96.2"
   x2="382.18"
   y2="134.87"
   id="line924" />
	<line
   class="st6"
   x1="401.51"
   y1="115.53"
   x2="362.84"
   y2="115.53"
   id="line926" />
</g>
<g
   id="g934">
	<line
   class="st6"
   x1="100.41"
   y1="520.71"
   x2="100.41"
   y2="559.38"
   id="line930" />
	<line
   class="st6"
   x1="119.74"
   y1="540.05"
   x2="81.08"
   y2="540.05"
   id="line932" />
</g>
<g
   id="g940">
	<line
   class="st6"
   x1="698.97"
   y1="254.94"
   x2="698.97"
   y2="293.6"
   id="line936" />
	<line
   class="st6"
   x1="718.3"
   y1="274.27"
   x2="679.64"
   y2="274.27"
   id="line938" />
</g>
<circle
   class="st6"
   cx="355.4"
   cy="290.07"
   r="16.94"
   id="circle942" />
<circle
   class="st6"
   cx="64.14"
   cy="380.9"
   r="16.94"
   id="circle944" />
<ellipse
   class="st6"
   cx="517.68042"
   cy="786.3042"
   id="circle946"
   rx="17.527149"
   ry="17.529146" />
<ellipse
   class="st6"
   cx="934.05878"
   cy="558.02179"
   id="circle948"
   rx="17.527149"
   ry="17.529146" />
</svg>
