<?xml version="1.0" encoding="UTF-8" standalone="no"?>
<svg
   version="1.1"
   id="Layer_1"
   x="0px"
   y="0px"
   viewBox="0 0 1024 1024"
   style="enable-background:new 0 0 1024 1024;"
   xml:space="preserve"
   sodipodi:docname="anvio-developers.svg"
   inkscape:version="1.1-dev (9017afb, 2021-01-01)"
   xmlns:inkscape="http://www.inkscape.org/namespaces/inkscape"
   xmlns:sodipodi="http://sodipodi.sourceforge.net/DTD/sodipodi-0.dtd"
   xmlns:xlink="http://www.w3.org/1999/xlink"
   xmlns="http://www.w3.org/2000/svg"
   xmlns:svg="http://www.w3.org/2000/svg"><defs
   id="defs1065"><linearGradient
     inkscape:collect="always"
     id="linearGradient1071"><stop
       style="stop-color:#e6e7e8;stop-opacity:1;"
       offset="0"
       id="stop1067" /><stop
       style="stop-color:#e6e7e8;stop-opacity:0;"
       offset="1"
       id="stop1069" /></linearGradient><linearGradient
     inkscape:collect="always"
     xlink:href="#linearGradient1071"
     id="linearGradient1073"
     x1="63.435585"
     y1="511.99893"
     x2="960.56278"
     y2="511.99893"
     gradientUnits="userSpaceOnUse" /></defs><sodipodi:namedview
   id="namedview1063"
   pagecolor="#ffffff"
   bordercolor="#666666"
   borderopacity="1.0"
   objecttolerance="10.0"
   gridtolerance="10.0"
   guidetolerance="10.0"
   inkscape:pageshadow="2"
   inkscape:pageopacity="0.0"
   inkscape:pagecheckerboard="0"
   showgrid="false"
   inkscape:zoom="0.23046875"
   inkscape:cx="512"
   inkscape:cy="512"
   inkscape:window-width="1003"
   inkscape:window-height="480"
   inkscape:window-x="0"
   inkscape:window-y="25"
   inkscape:window-maximized="0"
   inkscape:current-layer="Layer_1" />
<style
   type="text/css"
   id="style938">
	.st0{fill:#E6E7E8;}
	.st1{fill:#FFFFFF;stroke:#000000;stroke-width:8;stroke-linecap:round;stroke-linejoin:round;stroke-miterlimit:10;}
	.st2{fill:#277A5E;stroke:#000000;stroke-width:8;stroke-linecap:round;stroke-linejoin:round;stroke-miterlimit:10;}
	.st3{opacity:0.2;}
	.st4{fill:none;stroke:#000000;stroke-width:8;stroke-linecap:round;stroke-linejoin:round;stroke-miterlimit:10;}
	.st5{fill:#8DD1BC;stroke:#000000;stroke-width:8;stroke-linecap:round;stroke-linejoin:round;stroke-miterlimit:10;}
</style>
<path
   class="st0"
   d="M620.19,927.04C425.5,914.54,100.2,794.17,65.73,422.25S393.38,39.62,600.91,177.33  s379.06,344.24,357.88,542.74C937.61,918.57,696.24,931.93,620.19,927.04z"
   id="path940"
   style="fill-opacity:1;fill:url(#linearGradient1073)" />
<g
   id="g960">
	<rect
   x="317.92"
   y="444.73"
   class="st1"
   width="153.28"
   height="197.87"
   id="rect942" />
	<path
   class="st2"
   d="M673.18,876.44H115.94c0,0,8.28-198.99,30.57-231.04c20.21-29.04,72.37-71.8,147.33-79.57   c7.79-0.81,15.81-1.25,24.08-1.25l76.64,65.01l76.64-65.01c8.27,0,16.29,0.43,24.08,1.25c74.96,7.78,127.13,50.54,147.33,79.57   C664.89,677.44,673.18,876.44,673.18,876.44z"
   id="path944" />
	<g
   id="g950">
		<path
   class="st1"
   d="M516.15,385.1c0,0,7.32-17.48,21.25-13.01s-6.09,51.5-7.4,64.93c-1.31,13.43-7.61,33.66-21,23.1    C495.62,449.57,516.15,385.1,516.15,385.1z"
   id="path946" />
		<path
   class="st1"
   d="M272.97,385.1c0,0-7.32-17.48-21.25-13.01s6.09,51.5,7.4,64.93c1.31,13.43,7.61,33.66,21,23.1    C293.5,449.57,272.97,385.1,272.97,385.1z"
   id="path948" />
	</g>
	<path
   class="st3"
   d="M471.2,454.32v86.12c-0.41,0.48-0.81,0.96-1.22,1.44c-21.45,24.94-48.56,44.69-75.42,44.69   c-27.37,0-54.99-20.52-76.64-46.13v-86.12H471.2z"
   id="path952" />
	<path
   class="st1"
   d="M518.16,302.26c-4.56-28.86-54.77-51.15-123.6-51.15c-68.83,0-119.04,22.28-123.6,51.15   c-4.56,28.86-2.03,100.27,6.58,141.79c8.61,41.52,63.3,120.52,117.02,120.52l0,0h0l0,0l0,0c53.72,0,108.41-79,117.02-120.52   C520.18,402.52,522.72,331.12,518.16,302.26z"
   id="path954" />
	<polyline
   class="st4"
   points="574.71,768.28 574.71,876.43 214.41,876.43 214.41,768.28  "
   id="polyline956" />
	<path
   class="st3"
   d="M495.27,565.82l-101.5,100.67l-99.92-100.67c7.79-0.81,15.81-1.25,24.08-1.25l76.64,65.01l76.64-65.01   C479.47,564.58,487.48,565.01,495.27,565.82z"
   id="path958" />
</g>
<g
   id="g1026">
	<g
   id="g966">
		<path
   class="st1"
   d="M895.97,491.71H547.22c-12.91,0-23.37,10.46-23.37,23.37V792.6c0,12.91,10.46,23.37,23.37,23.37h348.74    c12.91,0,23.37-10.46,23.37-23.37V515.08C919.34,502.17,908.88,491.71,895.97,491.71z"
   id="path962" />
		<path
   class="st2"
   d="M919.34,515.08v31.78H523.85v-31.78c0-12.91,10.46-23.37,23.37-23.37h348.74    C908.88,491.71,919.34,502.17,919.34,515.08z"
   id="path964" />
	</g>
	<g
   id="g992">
		<line
   class="st4"
   x1="553.43"
   y1="577.6"
   x2="593.87"
   y2="577.6"
   id="line968" />
		<line
   class="st4"
   x1="553.43"
   y1="606.84"
   x2="593.87"
   y2="606.84"
   id="line970" />
		<line
   class="st4"
   x1="553.43"
   y1="636.09"
   x2="576.3"
   y2="636.09"
   id="line972" />
		<line
   class="st4"
   x1="661.27"
   y1="636.09"
   x2="684.13"
   y2="636.09"
   id="line974" />
		<line
   class="st4"
   x1="704.59"
   y1="636.09"
   x2="751.05"
   y2="636.09"
   id="line976" />
		<line
   class="st4"
   x1="596.28"
   y1="636.09"
   x2="641.77"
   y2="636.09"
   id="line978" />
		<line
   class="st4"
   x1="553.55"
   y1="665.33"
   x2="599.04"
   y2="665.33"
   id="line980" />
		<line
   class="st4"
   x1="622.57"
   y1="665.33"
   x2="650.43"
   y2="665.33"
   id="line982" />
		<line
   class="st4"
   x1="697.85"
   y1="606.84"
   x2="763.56"
   y2="606.84"
   id="line984" />
		<line
   class="st4"
   x1="615.89"
   y1="606.84"
   x2="637.92"
   y2="606.84"
   id="line986" />
		<line
   class="st4"
   x1="657.05"
   y1="606.84"
   x2="679.08"
   y2="606.84"
   id="line988" />
		<line
   class="st4"
   x1="781.98"
   y1="606.84"
   x2="804"
   y2="606.84"
   id="line990" />
	</g>
	<g
   id="g1018">
		<line
   class="st4"
   x1="553.43"
   y1="696.87"
   x2="593.87"
   y2="696.87"
   id="line994" />
		<line
   class="st4"
   x1="553.43"
   y1="726.11"
   x2="593.87"
   y2="726.11"
   id="line996" />
		<line
   class="st4"
   x1="553.43"
   y1="755.36"
   x2="576.3"
   y2="755.36"
   id="line998" />
		<line
   class="st4"
   x1="661.27"
   y1="755.36"
   x2="684.13"
   y2="755.36"
   id="line1000" />
		<line
   class="st4"
   x1="704.59"
   y1="755.36"
   x2="751.05"
   y2="755.36"
   id="line1002" />
		<line
   class="st4"
   x1="596.28"
   y1="755.36"
   x2="641.77"
   y2="755.36"
   id="line1004" />
		<line
   class="st4"
   x1="553.55"
   y1="784.6"
   x2="599.04"
   y2="784.6"
   id="line1006" />
		<line
   class="st4"
   x1="622.57"
   y1="784.6"
   x2="650.43"
   y2="784.6"
   id="line1008" />
		<line
   class="st4"
   x1="697.85"
   y1="726.11"
   x2="763.56"
   y2="726.11"
   id="line1010" />
		<line
   class="st4"
   x1="615.89"
   y1="726.11"
   x2="637.92"
   y2="726.11"
   id="line1012" />
		<line
   class="st4"
   x1="657.05"
   y1="726.11"
   x2="679.08"
   y2="726.11"
   id="line1014" />
		<line
   class="st4"
   x1="781.98"
   y1="726.11"
   x2="804"
   y2="726.11"
   id="line1016" />
	</g>
	<circle
   class="st5"
   cx="884.6"
   cy="519.29"
   r="12.27"
   id="circle1020" />
	<circle
   class="st5"
   cx="839.96"
   cy="519.29"
   r="12.27"
   id="circle1022" />
	<circle
   class="st5"
   cx="795.31"
   cy="519.29"
   r="12.27"
   id="circle1024" />
</g>
<g
   id="g1032">
	<line
   class="st4"
   x1="641.77"
   y1="387.14"
   x2="641.77"
   y2="428.54"
   id="line1028" />
	<line
   class="st4"
   x1="662.47"
   y1="407.84"
   x2="621.07"
   y2="407.84"
   id="line1030" />
</g>
<g
   id="g1038">
	<line
   class="st4"
   x1="193.71"
   y1="486.31"
   x2="193.71"
   y2="527.71"
   id="line1034" />
	<line
   class="st4"
   x1="214.41"
   y1="507.01"
   x2="173.01"
   y2="507.01"
   id="line1036" />
</g>
<g
   id="g1044">
	<line
   class="st4"
   x1="317.92"
   y1="118.65"
   x2="317.92"
   y2="160.05"
   id="line1040" />
	<line
   class="st4"
   x1="338.62"
   y1="139.35"
   x2="297.22"
   y2="139.35"
   id="line1042" />
</g>
<g
   id="g1050">
	<line
   class="st4"
   x1="751.05"
   y1="855.73"
   x2="751.05"
   y2="897.13"
   id="line1046" />
	<line
   class="st4"
   x1="771.74"
   y1="876.43"
   x2="730.35"
   y2="876.43"
   id="line1048" />
</g>
<circle
   class="st4"
   cx="583"
   cy="197.82"
   r="18.13"
   id="circle1052" />
<circle
   class="st4"
   cx="154.87"
   cy="318.59"
   r="18.13"
   id="circle1054" />
<circle
   class="st4"
   cx="97.81"
   cy="606.84"
   r="18.13"
   id="circle1056" />
<circle
   class="st4"
   cx="839.96"
   cy="407.84"
   r="18.13"
   id="circle1058" />
<path
   class="st5"
   d="M560.16,310.41c0-12.26-8.38-22.55-19.72-25.48c7.33-4.67,12.19-12.87,12.19-22.2  c0-14.54-11.78-26.32-26.32-26.32c-1.06,0-2.11,0.07-3.13,0.19c2-3.71,3.13-7.95,3.13-12.46c0-14.54-11.78-26.32-26.32-26.32  c-5.44,0-10.49,1.65-14.68,4.47c-0.85-13.77-12.28-24.67-26.26-24.67c-8.93,0-16.82,4.45-21.57,11.25  c-2.93-11.34-13.23-19.72-25.48-19.72c-10.79,0-20.05,6.49-24.12,15.78c-4.51-8.01-13.09-13.43-22.94-13.43  c-12.4,0-22.79,8.58-25.58,20.12c-4.77-6.69-12.59-11.06-21.44-11.06c-14.54,0-26.32,11.78-26.32,26.32c0,0.92,0.05,1.82,0.14,2.71  c-3.51-1.73-7.46-2.71-11.64-2.71c-14.54,0-26.32,11.78-26.32,26.32c0,5.44,1.65,10.49,4.47,14.68c-0.56-0.04-1.12-0.06-1.68-0.06  c-14.54,0-26.32,11.78-26.32,26.32c0,9.62,5.16,18.03,12.87,22.62c-11.63,2.73-20.29,13.16-20.29,25.62  c0,14.04,10.99,25.51,24.84,26.27c-6.14,3.21-10.33,9.63-10.33,17.04c0,10.62,8.61,19.24,19.24,19.24c1.88,0,3.69-0.28,5.4-0.78  c5.53,17.06,10.76,28.73,10.76,28.73s-0.19-19.1,4.06-43.46c0.31,0.01,0.63,0.02,0.94,0.02c10.32,0,18.96-7.14,21.28-16.74  c1.05,0.12,2.11,0.19,3.19,0.19c7.52,0,14.32-3.04,19.25-7.97c3.09,1.67,6.64,2.62,10.4,2.62c6.77,0,12.81-3.07,16.83-7.89  c2.76,8.93,11.08,15.42,20.92,15.42c7.88,0,14.77-4.17,18.63-10.42c0.12,0.02,0.25,0.04,0.38,0.06  c1.97,10.07,10.82,17.67,21.46,17.67c7.3,0,13.76-3.58,17.74-9.07c3.79,6.55,10.86,10.95,18.96,10.95c7.4,0,13.94-3.67,17.9-9.29  c3.96,5.62,10.5,9.29,17.9,9.29c6.88,0,13.02-3.18,17.03-8.14c7.67,12.2,16.98,32.13,16.78,56.75c0,0,5.94-17.84,11.64-41.57  c0.4,0.02,0.8,0.06,1.21,0.06c10.62,0,19.24-8.61,19.24-19.24c0-6.73-3.46-12.64-8.69-16.08  C551.45,333.36,560.16,322.9,560.16,310.41z"
   id="path1060" />
</svg>
