<?xml version="1.0" encoding="UTF-8" standalone="no"?>
<svg
   version="1.1"
   id="Layer_1"
   x="0px"
   y="0px"
   viewBox="0 0 1024 1024"
   style="enable-background:new 0 0 1024 1024;"
   xml:space="preserve"
   sodipodi:docname="cite-anvio.svg"
   inkscape:version="1.1-dev (9017afb, 2021-01-01)"
   xmlns:inkscape="http://www.inkscape.org/namespaces/inkscape"
   xmlns:sodipodi="http://sodipodi.sourceforge.net/DTD/sodipodi-0.dtd"
   xmlns:xlink="http://www.w3.org/1999/xlink"
   xmlns="http://www.w3.org/2000/svg"
   xmlns:svg="http://www.w3.org/2000/svg"><defs
   id="defs944"><linearGradient
     inkscape:collect="always"
     id="linearGradient950"><stop
       style="stop-color:#e6e7e8;stop-opacity:1;"
       offset="0"
       id="stop946" /><stop
       style="stop-color:#e6e7e8;stop-opacity:0;"
       offset="1"
       id="stop948" /></linearGradient><linearGradient
     inkscape:collect="always"
     xlink:href="#linearGradient950"
     id="linearGradient952"
     x1="63.435585"
     y1="511.99893"
     x2="960.56278"
     y2="511.99893"
     gradientUnits="userSpaceOnUse" /></defs><sodipodi:namedview
   id="namedview942"
   pagecolor="#ffffff"
   bordercolor="#666666"
   borderopacity="1.0"
   objecttolerance="10.0"
   gridtolerance="10.0"
   guidetolerance="10.0"
   inkscape:pageshadow="2"
   inkscape:pageopacity="0.0"
   inkscape:pagecheckerboard="0"
   showgrid="false"
   inkscape:zoom="0.23046875"
   inkscape:cx="512"
   inkscape:cy="512"
   inkscape:window-width="1003"
   inkscape:window-height="480"
   inkscape:window-x="0"
   inkscape:window-y="25"
   inkscape:window-maximized="0"
   inkscape:current-layer="Layer_1" />
<style
   type="text/css"
   id="style871">
	.st0{fill:#E6E7E8;}
	.st1{fill:none;stroke:#000000;stroke-width:8;stroke-linecap:round;stroke-linejoin:round;stroke-miterlimit:10;}
	.st2{fill:#FFFFFF;stroke:#000000;stroke-width:8;stroke-linecap:round;stroke-linejoin:round;stroke-miterlimit:10;}
	.st3{fill:#277A5E;stroke:#000000;stroke-width:8;stroke-linecap:round;stroke-linejoin:round;stroke-miterlimit:10;}
	.st4{fill:#8DD1BC;stroke:#000000;stroke-width:8;stroke-linecap:round;stroke-linejoin:round;stroke-miterlimit:10;}
	.st5{opacity:0.2;}
</style>
<path
   class="st0"
   d="M620.19,927.04C425.5,914.54,100.2,794.17,65.73,422.25S393.38,39.62,600.91,177.33  s379.06,344.24,357.88,542.74C937.61,918.57,696.24,931.93,620.19,927.04z"
   id="path873"
   style="fill-opacity:1;fill:url(#linearGradient952)" />
<g
   id="g879">
	<line
   class="st1"
   x1="233.94"
   y1="573.49"
   x2="233.94"
   y2="612.15"
   id="line875" />
	<line
   class="st1"
   x1="253.27"
   y1="592.82"
   x2="214.61"
   y2="592.82"
   id="line877" />
</g>
<g
   id="g885">
	<line
   class="st1"
   x1="164.29"
   y1="175.08"
   x2="164.29"
   y2="213.74"
   id="line881" />
	<line
   class="st1"
   x1="183.63"
   y1="194.41"
   x2="144.96"
   y2="194.41"
   id="line883" />
</g>
<g
   id="g891">
	<line
   class="st1"
   x1="901.71"
   y1="327.55"
   x2="901.71"
   y2="366.21"
   id="line887" />
	<line
   class="st1"
   x1="921.04"
   y1="346.88"
   x2="882.37"
   y2="346.88"
   id="line889" />
</g>
<g
   id="g897">
	<line
   class="st1"
   x1="722.41"
   y1="90.34"
   x2="722.41"
   y2="129"
   id="line893" />
	<line
   class="st1"
   x1="741.74"
   y1="109.67"
   x2="703.08"
   y2="109.67"
   id="line895" />
</g>
<circle
   class="st1"
   cx="870.05"
   cy="638.44"
   r="16.94"
   id="circle899" />
<circle
   class="st1"
   cx="425.06"
   cy="109.67"
   r="16.94"
   id="circle901" />
<g
   id="g935">
	<path
   class="st2"
   d="M786.51,153.84H437.1H331.75h-81.83v75.12h40.92v600.98h536.59V194.75   C827.43,172.16,809.11,153.84,786.51,153.84z"
   id="path903" />
	<g
   id="g915">
		<g
   id="g913">
			<g
   id="g907">
				<path
   class="st3"
   d="M382.05,264.78v48.88h-46.53v-13.69l-0.39-14.08c0-12.51,1.69-23.33,5.08-32.45      c3.91-9.13,10.81-17.86,20.72-26.2v37.54H382.05z M448.52,264.78v48.88h-46.53l-0.39-14.08v-14.08      c0-11.99,1.82-22.68,5.47-32.06c3.38-9.13,10.03-17.86,19.94-26.2v37.54H448.52z"
   id="path905" />
			</g>
			<g
   id="g911">
				<path
   class="st3"
   d="M734.52,730.54v-48.88h46.53v13.69l0.39,14.08c0,12.51-1.69,23.33-5.08,32.45      c-3.91,9.13-10.81,17.86-20.72,26.2v-37.54H734.52z M668.05,730.54v-48.88h46.53l0.39,14.08v14.08      c0,11.99-1.82,22.68-5.47,32.06c-3.38,9.13-10.03,17.86-19.94,26.2v-37.54H668.05z"
   id="path909" />
			</g>
		</g>
	</g>
	<path
   class="st4"
   d="M249.92,153.84L249.92,153.84c-22.6,0-40.92,18.32-40.92,40.92v109.33h81.83V194.75   C290.83,172.16,272.51,153.84,249.92,153.84z"
   id="path917" />
	<path
   class="st5"
   d="M249.92,153.84L249.92,153.84c-15.06,0-28.21,8.14-35.31,20.25c4.85-2.03,10.18-3.15,15.77-3.15h0   c22.6,0,40.92,18.32,40.92,40.92v92.23h19.54V194.75C290.83,172.16,272.51,153.84,249.92,153.84z"
   id="path919" />
	<line
   class="st1"
   x1="482.71"
   y1="313.66"
   x2="781.45"
   y2="313.66"
   id="line921" />
	<line
   class="st1"
   x1="335.13"
   y1="378.62"
   x2="781.45"
   y2="378.62"
   id="line923" />
	<line
   class="st1"
   x1="335.13"
   y1="443.57"
   x2="781.45"
   y2="443.57"
   id="line925" />
	<line
   class="st1"
   x1="335.13"
   y1="508.53"
   x2="781.45"
   y2="508.53"
   id="line927" />
	<line
   class="st1"
   x1="335.13"
   y1="573.49"
   x2="781.45"
   y2="573.49"
   id="line929" />
	<line
   class="st1"
   x1="335.13"
   y1="638.44"
   x2="781.45"
   y2="638.44"
   id="line931" />
	<line
   class="st1"
   x1="335.13"
   y1="703.4"
   x2="643.14"
   y2="703.4"
   id="line933" />
</g>
<circle
   class="st1"
   cx="164.29"
   cy="412.08"
   r="16.94"
   id="circle937" />
<circle
   class="st1"
   cx="156.29"
   cy="732.83"
   r="16.94"
   id="circle939" />
</svg>
