<?xml version="1.0" encoding="UTF-8" standalone="no"?>
<svg
   version="1.1"
   id="Layer_1"
   x="0px"
   y="0px"
   viewBox="0 0 1024 1024"
   style="enable-background:new 0 0 1024 1024;"
   xml:space="preserve"
   sodipodi:docname="install-anvio.svg"
   inkscape:version="1.1-dev (9017afb, 2021-01-01)"
   xmlns:inkscape="http://www.inkscape.org/namespaces/inkscape"
   xmlns:sodipodi="http://sodipodi.sourceforge.net/DTD/sodipodi-0.dtd"
   xmlns:xlink="http://www.w3.org/1999/xlink"
   xmlns="http://www.w3.org/2000/svg"
   xmlns:svg="http://www.w3.org/2000/svg"><defs
   id="defs1022"><linearGradient
     inkscape:collect="always"
     id="linearGradient1028"><stop
       style="stop-color:#e6e7e8;stop-opacity:1;"
       offset="0"
       id="stop1024" /><stop
       style="stop-color:#e6e7e8;stop-opacity:0;"
       offset="1"
       id="stop1026" /></linearGradient><linearGradient
     inkscape:collect="always"
     xlink:href="#linearGradient1028"
     id="linearGradient1030"
     x1="63.435585"
     y1="511.99893"
     x2="960.56278"
     y2="511.99893"
     gradientUnits="userSpaceOnUse" /></defs><sodipodi:namedview
   id="namedview1020"
   pagecolor="#ffffff"
   bordercolor="#666666"
   borderopacity="1.0"
   objecttolerance="10.0"
   gridtolerance="10.0"
   guidetolerance="10.0"
   inkscape:pageshadow="2"
   inkscape:pageopacity="0.0"
   inkscape:pagecheckerboard="0"
   showgrid="false"
   inkscape:zoom="0.23046875"
   inkscape:cx="512"
   inkscape:cy="512"
   inkscape:window-width="1003"
   inkscape:window-height="480"
   inkscape:window-x="0"
   inkscape:window-y="25"
   inkscape:window-maximized="0"
   inkscape:current-layer="Layer_1" />
<style
   type="text/css"
   id="style961">
	.st0{fill:#E6E7E8;}
	.st1{fill:#8DD1BC;stroke:#000000;stroke-width:8;stroke-linecap:round;stroke-linejoin:round;stroke-miterlimit:10;}
	.st2{fill:#277A5E;stroke:#000000;stroke-width:8;stroke-linecap:round;stroke-linejoin:round;stroke-miterlimit:10;}
	.st3{fill:#FFFFFF;stroke:#000000;stroke-width:8;stroke-linecap:round;stroke-linejoin:round;stroke-miterlimit:10;}
	.st4{fill:none;stroke:#000000;stroke-width:8;stroke-linecap:round;stroke-linejoin:round;stroke-miterlimit:10;}
	.st5{opacity:0.2;}
</style>
<path
   class="st0"
   d="M620.19,927.04C425.5,914.54,100.2,794.17,65.73,422.25S393.38,39.62,600.91,177.33  s379.06,344.24,357.88,542.74C937.61,918.57,696.24,931.93,620.19,927.04z"
   id="path963"
   style="fill-opacity:1;fill:url(#linearGradient1030)" />
<g
   id="g985">
	<g
   id="g973">
		<path
   class="st1"
   d="M839.62,280.52H184.38c-24.9,0-45.08,20.18-45.08,45.08v459.11c0,24.9,20.18,45.08,45.08,45.08h655.24    c24.9,0,45.08-20.18,45.08-45.08V325.6C884.7,300.7,864.52,280.52,839.62,280.52z"
   id="path965" />
		<path
   class="st2"
   d="M937,829.8v15.45c0,1.12-0.03,2.22-0.09,3.33c-1.72,31.43-27.77,56.39-59.63,56.39H146.72    c-31.86,0-57.91-24.96-59.63-56.39c-0.06-1.11-0.09-2.21-0.09-3.33V829.8H937z"
   id="path967" />
		<path
   class="st3"
   d="M596.76,829.27c0,10.37-4.2,19.77-11.01,26.58c-6.8,6.81-16.2,11.01-26.58,11.01h-93.28    c-20.77,0-37.59-16.83-37.59-37.59H596.76z"
   id="path969" />
		<rect
   x="186.7"
   y="330.36"
   class="st3"
   width="650.6"
   height="449.58"
   id="rect971" />
	</g>
	<line
   class="st4"
   x1="762.12"
   y1="857.03"
   x2="762.12"
   y2="877.74"
   id="line975" />
	<line
   class="st4"
   x1="786.09"
   y1="857.03"
   x2="786.09"
   y2="877.74"
   id="line977" />
	<line
   class="st4"
   x1="810.06"
   y1="857.03"
   x2="810.06"
   y2="877.74"
   id="line979" />
	<line
   class="st4"
   x1="834.03"
   y1="857.03"
   x2="834.03"
   y2="877.74"
   id="line981" />
	<path
   class="st5"
   d="M937,829.8v15.45c0,1.12-0.03,2.22-0.09,3.33H87.09c-0.06-1.11-0.09-2.21-0.09-3.33V829.8H937z"
   id="path983" />
</g>
<path
   class="st1"
   d="M762.12,665.05c0,16.7-13.53,30.23-30.23,30.23H285.06c-8.34,0-15.9-3.38-21.37-8.85  c-5.47-5.47-8.86-13.03-8.86-21.38c0-16.69,13.54-30.23,30.23-30.23h446.83c8.35,0,15.91,3.39,21.38,8.86  C758.74,649.15,762.12,656.71,762.12,665.05z"
   id="path987" />
<path
   class="st2"
   d="M578.23,634.82v60.46H285.06c-8.34,0-15.9-3.38-21.37-8.85c-5.47-5.47-8.86-13.03-8.86-21.38  c0-16.69,13.54-30.23,30.23-30.23H578.23z"
   id="path989" />
<g
   id="g995">
	<line
   class="st4"
   x1="234.13"
   y1="161.01"
   x2="234.13"
   y2="202.4"
   id="line991" />
	<line
   class="st4"
   x1="254.83"
   y1="181.71"
   x2="213.43"
   y2="181.71"
   id="line993" />
</g>
<g
   id="g1001">
	<line
   class="st4"
   x1="89.56"
   y1="592.05"
   x2="89.56"
   y2="633.44"
   id="line997" />
	<line
   class="st4"
   x1="110.26"
   y1="612.75"
   x2="68.87"
   y2="612.75"
   id="line999" />
</g>
<g
   id="g1007">
	<line
   class="st4"
   x1="927.12"
   y1="470.99"
   x2="927.12"
   y2="512.38"
   id="line1003" />
	<line
   class="st4"
   x1="947.82"
   y1="491.68"
   x2="906.42"
   y2="491.68"
   id="line1005" />
</g>
<circle
   class="st4"
   cx="767.96"
   cy="233.4"
   r="18.13"
   id="circle1009" />
<circle
   class="st4"
   cx="458.2"
   cy="139.52"
   r="18.13"
   id="circle1011" />
<circle
   class="st4"
   cx="927.12"
   cy="721.14"
   r="18.13"
   id="circle1013" />
<circle
   class="st4"
   cx="87"
   cy="337.75"
   r="18.13"
   id="circle1015" />
<polygon
   class="st2"
   points="590.76,426.09 590.76,194.56 434.29,194.56 434.29,426.09 363.75,426.09 512.53,597.91 661.31,426.09   "
   id="polygon1017" />
</svg>
