<?xml version="1.0" encoding="UTF-8" standalone="no"?>
<svg
   version="1.1"
   id="Layer_1"
   x="0px"
   y="0px"
   viewBox="0 0 1024 1024"
   style="enable-background:new 0 0 1024 1024;"
   xml:space="preserve"
   sodipodi:docname="learn-anvio.svg"
   inkscape:version="1.1-dev (9017afb, 2021-01-01)"
   xmlns:inkscape="http://www.inkscape.org/namespaces/inkscape"
   xmlns:sodipodi="http://sodipodi.sourceforge.net/DTD/sodipodi-0.dtd"
   xmlns:xlink="http://www.w3.org/1999/xlink"
   xmlns="http://www.w3.org/2000/svg"
   xmlns:svg="http://www.w3.org/2000/svg"><defs
   id="defs1127"><linearGradient
     inkscape:collect="always"
     id="linearGradient2132"><stop
       style="stop-color:#e6e7e8;stop-opacity:1;"
       offset="0"
       id="stop2128" /><stop
       style="stop-color:#e6e7e8;stop-opacity:0;"
       offset="1"
       id="stop2130" /></linearGradient><linearGradient
     inkscape:collect="always"
     xlink:href="#linearGradient2132"
     id="linearGradient2134"
     x1="63.435585"
     y1="511.99893"
     x2="960.56278"
     y2="511.99893"
     gradientUnits="userSpaceOnUse" /></defs><sodipodi:namedview
   id="namedview1125"
   pagecolor="#ffffff"
   bordercolor="#666666"
   borderopacity="1.0"
   objecttolerance="10.0"
   gridtolerance="10.0"
   guidetolerance="10.0"
   inkscape:pageshadow="2"
   inkscape:pageopacity="0.0"
   inkscape:pagecheckerboard="0"
   showgrid="false"
   inkscape:zoom="0.73535156"
   inkscape:cx="511.32005"
   inkscape:cy="511.32005"
   inkscape:window-width="1983"
   inkscape:window-height="1276"
   inkscape:window-x="0"
   inkscape:window-y="25"
   inkscape:window-maximized="0"
   inkscape:current-layer="Layer_1" />
<style
   type="text/css"
   id="style1032">
	.st0{fill:#E6E7E8;}
	.st1{fill:none;stroke:#000000;stroke-width:8;stroke-linecap:round;stroke-linejoin:round;stroke-miterlimit:10;}
	.st2{fill:#FFFFFF;stroke:#000000;stroke-width:8;stroke-linecap:round;stroke-linejoin:round;stroke-miterlimit:10;}
	.st3{fill:#8DD1BC;stroke:#000000;stroke-width:8;stroke-linecap:round;stroke-linejoin:round;stroke-miterlimit:10;}
	.st4{fill:#277A5E;stroke:#000000;stroke-width:8;stroke-linecap:round;stroke-linejoin:round;stroke-miterlimit:10;}
</style>
<path
   class="st0"
   d="M620.19,927.04C425.5,914.54,100.2,794.17,65.73,422.25S393.38,39.62,600.91,177.33  s379.06,344.24,357.88,542.74C937.61,918.57,696.24,931.93,620.19,927.04z"
   id="path1034"
   style="fill-opacity:1;fill:url(#linearGradient2134)" />
<g
   id="g1040">
	<line
   class="st1"
   x1="533.23"
   y1="132.77"
   x2="533.23"
   y2="174.17"
   id="line1036" />
	<line
   class="st1"
   x1="553.93"
   y1="153.47"
   x2="512.53"
   y2="153.47"
   id="line1038" />
</g>
<g
   id="g1046">
	<line
   class="st1"
   x1="198.69"
   y1="410.24"
   x2="198.69"
   y2="451.64"
   id="line1042" />
	<line
   class="st1"
   x1="219.39"
   y1="430.94"
   x2="177.99"
   y2="430.94"
   id="line1044" />
</g>
<g
   id="g1052">
	<line
   class="st1"
   x1="858.22"
   y1="673.74"
   x2="858.22"
   y2="715.13"
   id="line1048" />
	<line
   class="st1"
   x1="878.92"
   y1="694.44"
   x2="837.52"
   y2="694.44"
   id="line1050" />
</g>
<circle
   class="st1"
   cx="278.28"
   cy="142.07"
   r="18.13"
   id="circle1054" />
<circle
   class="st1"
   cx="801.25"
   cy="153.47"
   r="18.13"
   id="circle1056" />
<circle
   class="st1"
   cx="196.13"
   cy="660.29"
   r="18.13"
   id="circle1058" />
<circle
   class="st1"
   cx="819.39"
   cy="438.29"
   r="18.13"
   id="circle1060" />













<g
   id="g2126"
   transform="matrix(1.0859656,0,0,1.0857686,-43.874664,-78.781532)"
   style="stroke-width:0.920923"><path
     class="st2"
     d="m 499.01,866.77 c 0,28.05 -15.58,71.15 -51.42,42.07 0,0 -59.73,14.54 -69.6,-47.78 0,0 -47.78,5.71 -49.86,-71.67 0,0 -38.43,3.12 -62.84,-57.65 -24.41,-60.77 14.54,-83.62 14.54,-83.62 0,0 -20.77,-28.05 -18.7,-77.39 2.08,-49.34 31.68,-57.65 31.68,-57.65 0,0 -24.41,-79.46 37.39,-102.84 0,0 -0.25,-46.74 47.92,-49.34 0,0 13.89,-39.99 60.11,-27.01 0,0 15.06,-14.02 35.32,-14.02 20.26,0 25.45,16.1 25.45,33.24 0.01,17.14 0.01,513.66 0.01,513.66 z"
     id="path1062" /><path
     class="st1"
     d="m 499.01,857.16 c 0,-24.37462 -42.3185,-20.10083 -55.27179,-38.06064"
     id="path1064" /><path
     class="st1"
     d="m 328.14,789.39 c 18.7,0 32.72,-15.06 17.66,-36.88 -15.06,-21.81 -30.64,-42.59 -49.34,-54.01"
     id="path1066" /><path
     class="st1"
     d="m 378,861.06 c 18.7,-8.83 0,-47.78 0,-47.78 -10.91,-27.01 18.7,-46.22 -10.39,-91.93"
     id="path1068" /><path
     class="st1"
     d="m 447.6,908.84 c -1.56,-25.45 0.52,-32.72 -19.22,-39.47 -19.74,-6.75 -22.85,-9.87 -25.97,-20.26"
     id="path1070" /><path
     class="st1"
     d="m 301.12997,601.80079 c 0,0 26.42378,-5.92565 34.62638,18.23342 8.2026,24.15906 0.91238,26.44153 13.21189,34.19315 12.29951,7.75162 40.81122,17.83838 43.28516,44.68373"
     id="path1074" /><path
     class="st1"
     d="m 499.01,667.85 c 0,-14.54 -24.93,-43.82 -49.34,-48.66 -24.41,-4.84 -64.92,-1.72 -63.36,-47.43 1.56,-45.7 -10.52,-68.81 -11.08,-89.85 -1.04,-38.78 13.68,-39.99 22.51,-60.25 8.83,-20.26 4.15,-37.91 16.62,-57.13"
     id="path1076" /><path
     class="st1"
     d="m 432.53,743.58 c 0,0 21.29,-4.16 33.24,7.27 11.95,11.43 33.24,11.43 33.24,11.43"
     id="path1078" /><path
     class="st1"
     d="m 455.39,438.29 c 0,0 -21.35,19.74 -16.13,41.55 5.22,21.81 -14.51,32.2 -6.72,49.34 7.79,17.14 17.14,40.51 35.32,42.07 18.18,1.56 31.16,18.7 31.16,35.84"
     id="path1080" /><path
     class="st1"
     d="m 438.25,333.9 c -4.67,11.95 19.22,24.93 14.02,49.86"
     id="path1082" /><path
     class="st1"
     d="m 330.22,410.24 c 12.46,2.6 18.18,22.85 9.87,33.24 -8.31,10.39 -13.5,23.37 -9.87,35.84 3.63,12.47 -6.51,28.57 -1.18,46.22"
     id="path1084" /><path
     class="st1"
     d="m 292.82,513.08 c 6.75,23.89 16.81,46.74 34.63,51.94 17.82,5.19 35.48,19.74 35.48,19.74"
     id="path1086" /><path
     class="st1"
     d="m 455.18168,620.59248 c -20.03113,-3.42347 -15.31163,22.87804 -35.1442,24.04666"
     id="path1088" /></g>
<g
   id="g1118"
   transform="matrix(1.0859656,0,0,1.0857686,-43.874664,-78.781532)"
   style="stroke-width:0.920923">
	<path
   class="st2"
   d="m 524.99,866.77 c 0,28.05 15.58,71.15 51.42,42.07 0,0 59.73,14.54 69.6,-47.78 0,0 47.78,5.71 49.86,-71.67 0,0 38.43,3.12 62.84,-57.65 24.41,-60.77 -14.54,-83.62 -14.54,-83.62 0,0 20.77,-28.05 18.7,-77.39 -2.07,-49.34 -31.68,-57.65 -31.68,-57.65 0,0 24.41,-79.46 -37.39,-102.84 0,0 0.25,-46.74 -47.92,-49.34 0,0 -13.89,-39.99 -60.11,-27.01 0,0 -15.06,-14.02 -35.32,-14.02 -20.26,0 -25.45,16.1 -25.45,33.24 -0.01,17.14 -0.01,513.66 -0.01,513.66 z"
   id="path1090" />
	<path
   class="st1"
   d="m 524.99,849.16 c 0,-29.6 50.9,-24.41 66.48,-46.22"
   id="path1092" />
	<path
   class="st1"
   d="m 695.86,789.39 c -18.7,0 -32.72,-15.06 -17.66,-36.88 15.06,-21.81 30.64,-42.59 49.34,-54.01"
   id="path1094" />
	<path
   class="st1"
   d="m 646,861.06 c -18.7,-8.83 0,-47.78 0,-47.78 10.91,-27.01 -18.7,-46.22 10.39,-91.93"
   id="path1096" />
	<path
   class="st1"
   d="m 576.4,908.84 c 1.56,-25.45 -0.52,-32.72 19.22,-39.47 19.74,-6.75 22.85,-9.87 25.97,-20.26"
   id="path1098" />
	
	<path
   class="st1"
   d="m 722.87,601.89 c 0,0 -30.12,-6.75 -39.47,20.77 -9.35,27.52 -1.04,30.12 -15.06,38.95 -14.02,8.83 -46.52,20.32 -49.34,50.9"
   id="path1102" />
	<path
   class="st1"
   d="m 524.99,667.85 c 0,-14.54 24.93,-43.82 49.34,-48.66 24.41,-4.84 64.92,-1.72 63.36,-47.43 -1.56,-45.71 10.52,-68.81 11.08,-89.85 1.04,-38.78 -13.68,-39.99 -22.51,-60.25 -8.83,-20.26 -4.15,-37.91 -16.62,-57.13"
   id="path1104" />
	<path
   class="st1"
   d="m 591.47,717.58 c 0,0 -21.29,-4.16 -33.24,7.27 -11.95,11.43 -33.24,11.43 -33.24,11.43"
   id="path1106" />
	<path
   class="st1"
   d="m 578.48764,460.0483 c 0,0 26.18354,17.19552 19.78176,36.19421 -6.40178,18.9987 17.79499,28.04943 8.24137,42.98008 -9.55361,14.93066 -21.02041,35.28827 -43.31627,36.64718 -22.29587,1.35892 -38.21448,16.28958 -38.21448,31.22023"
   id="path1108" />
	<path
   class="st1"
   d="m 585.75,333.9 c 4.67,11.95 -19.22,24.93 -14.02,49.86"
   id="path1110" />
	<path
   class="st1"
   d="m 693.78,410.24 c -12.46,2.6 -18.18,22.85 -9.87,33.24 8.31,10.39 13.5,23.37 9.87,35.84 -3.63,12.47 6.51,28.57 1.18,46.22"
   id="path1112" />
	<path
   class="st1"
   d="m 731.18,513.08 c -6.75,23.89 -16.81,46.74 -34.63,51.94 -17.82,5.19 -35.48,19.74 -35.48,19.74"
   id="path1114" />
	<path
   class="st1"
   d="m 568.82,620.69 c 26.23,-4.57 20.05,30.54 46.02,32.1"
   id="path1116" />
</g>
<path
   class="st3"
   d="m 381.28976,417.8866 56.76,-130.13 -35,9.83 c 0,0 -90.55,-170.34 -297.95,-77.33 0,0 141.82,-32.86 199.4,105 l -39.39,11.06 z"
   id="path1120" />
<path
   class="st4"
   d="m 635.12841,422.6017 -56.76,-130.13 35,9.83 c 0,0 90.55,-170.34 297.95,-77.33 0,0 -141.82,-32.86 -199.4,105 l 39.39,11.06 z"
   id="path1122" />
</svg>
