<?xml version="1.0" encoding="UTF-8" standalone="no"?>
<svg
   version="1.1"
   id="Layer_1"
   x="0px"
   y="0px"
   viewBox="0 0 1024 1024"
   style="enable-background:new 0 0 1024 1024;"
   xml:space="preserve"
   sodipodi:docname="omics-vocabulary.svg"
   inkscape:version="1.1-dev (9017afb, 2021-01-01)"
   xmlns:inkscape="http://www.inkscape.org/namespaces/inkscape"
   xmlns:sodipodi="http://sodipodi.sourceforge.net/DTD/sodipodi-0.dtd"
   xmlns:xlink="http://www.w3.org/1999/xlink"
   xmlns="http://www.w3.org/2000/svg"
   xmlns:svg="http://www.w3.org/2000/svg"><defs
   id="defs2211"><linearGradient
     inkscape:collect="always"
     id="linearGradient2274"><stop
       style="stop-color:#e6e7e8;stop-opacity:1;"
       offset="0"
       id="stop2270" /><stop
       style="stop-color:#e6e7e8;stop-opacity:0;"
       offset="1"
       id="stop2272" /></linearGradient><linearGradient
     inkscape:collect="always"
     xlink:href="#linearGradient2274"
     id="linearGradient2276"
     x1="63.435585"
     y1="511.99893"
     x2="960.56278"
     y2="511.99893"
     gradientUnits="userSpaceOnUse" /></defs><sodipodi:namedview
   id="namedview2209"
   pagecolor="#ffffff"
   bordercolor="#666666"
   borderopacity="1.0"
   objecttolerance="10.0"
   gridtolerance="10.0"
   guidetolerance="10.0"
   inkscape:pageshadow="2"
   inkscape:pageopacity="0.0"
   inkscape:pagecheckerboard="0"
   showgrid="false"
   inkscape:zoom="0.73535156"
   inkscape:cx="512"
   inkscape:cy="512"
   inkscape:window-width="2160"
   inkscape:window-height="1589"
   inkscape:window-x="0"
   inkscape:window-y="25"
   inkscape:window-maximized="0"
   inkscape:current-layer="Layer_1" />
<style
   type="text/css"
   id="style2136">
	.st0{fill:#E6E7E8;}
	.st1{fill:none;stroke:#000000;stroke-width:8;stroke-linecap:round;stroke-linejoin:round;stroke-miterlimit:10;}
	.st2{fill:#FFFFFF;stroke:#000000;stroke-width:8;stroke-linecap:round;stroke-linejoin:round;stroke-miterlimit:10;}
	.st3{fill:#277A5E;stroke:#000000;stroke-width:8;stroke-linecap:round;stroke-linejoin:round;stroke-miterlimit:10;}
	.st4{opacity:0.2;}
	.st5{fill:#8DD1BC;stroke:#000000;stroke-width:8;stroke-linecap:round;stroke-linejoin:round;stroke-miterlimit:10;}
</style>
<path
   class="st0"
   d="M620.19,927.04C425.5,914.54,100.2,794.17,65.73,422.25S393.38,39.62,600.91,177.33  s379.06,344.24,357.88,542.74C937.61,918.57,696.24,931.93,620.19,927.04z"
   id="path2138"
   style="fill-opacity:1;fill:url(#linearGradient2276)" />
<g
   id="g2144">
	<line
   class="st1"
   x1="174.65"
   y1="536.69"
   x2="174.65"
   y2="578.08"
   id="line2140" />
	<line
   class="st1"
   x1="195.35"
   y1="557.39"
   x2="153.95"
   y2="557.39"
   id="line2142" />
</g>
<g
   id="g2150">
	<line
   class="st1"
   x1="185.94"
   y1="142.86"
   x2="185.94"
   y2="184.25"
   id="line2146" />
	<line
   class="st1"
   x1="206.64"
   y1="163.55"
   x2="165.24"
   y2="163.55"
   id="line2148" />
</g>
<g
   id="g2156">
	<line
   class="st1"
   x1="853.71"
   y1="477.77"
   x2="853.71"
   y2="519.17"
   id="line2152" />
	<line
   class="st1"
   x1="874.4"
   y1="498.47"
   x2="833.01"
   y2="498.47"
   id="line2154" />
</g>
<g
   id="g2162">
	<line
   class="st1"
   x1="543.12"
   y1="91.92"
   x2="543.12"
   y2="133.32"
   id="line2158" />
	<line
   class="st1"
   x1="563.82"
   y1="112.62"
   x2="522.42"
   y2="112.62"
   id="line2160" />
</g>
<circle
   class="st1"
   cx="903.39"
   cy="710.76"
   r="18.13"
   id="circle2164" />
<circle
   class="st1"
   cx="885.26"
   cy="263.93"
   r="18.13"
   id="circle2166" />
<circle
   class="st1"
   cx="129.3"
   cy="331.91"
   r="18.13"
   id="circle2168" />
<path
   class="st2"
   d="M796.3,155.87V774.8H227.7V227.47c0-39.55,32.06-71.6,71.6-71.6H796.3z"
   id="path2170" />
<path
   class="st3"
   d="M346.8,155.87V774.8H227.7V227.47c0-39.55,32.06-71.6,71.6-71.6H346.8z"
   id="path2172" />
<path
   class="st2"
   d="M300.73,701.77c-40.33,0-73.02,32.69-73.02,73.02l0,0c0,40.33,32.69,73.02,73.02,73.02H796.3V701.77H300.73z"
   id="path2174" />
<path
   class="st4"
   d="M247.07,794.16c0-40.33,32.69-73.02,73.02-73.02h476.2v-19.37H300.73c-40.33,0-73.02,32.69-73.02,73.02  c0,25.11,12.68,47.26,31.99,60.4C251.73,823.5,247.07,809.38,247.07,794.16z"
   id="path2176" />
<g
   id="g2184">
	<line
   class="st2"
   x1="796.3"
   y1="736.73"
   x2="346.8"
   y2="736.73"
   id="line2178" />
	<line
   class="st2"
   x1="796.3"
   y1="774.8"
   x2="346.8"
   y2="774.8"
   id="line2180" />
	<line
   class="st2"
   x1="796.3"
   y1="812.86"
   x2="346.8"
   y2="812.86"
   id="line2182" />
</g>
<polygon
   class="st5"
   points="408.11,919.51 377.46,880.48 346.8,919.51 346.8,774.8 408.11,774.8 "
   id="polygon2186" />
<rect
   x="314.71"
   y="155.87"
   class="st4"
   width="32.09"
   height="546.29"
   id="rect2188" />
<g
   id="g2206"
   transform="matrix(0.82985772,-0.54328475,0.5370137,0.8395485,-131.11959,379.3497)"
   style="stroke-width:1.00582">
	<path
   class="st1"
   d="m 495.1,225.06 c 0,67.98 152.89,67.98 152.89,135.96 C 648,429.01 495.1,429.01 495.1,497 c 0,67.99 152.9,67.98 152.9,135.96"
   id="path2190" />
	<path
   class="st1"
   d="M 648,225.06 C 648,293.04 495.11,293.04 495.11,361.02 495.1,429.01 648,429.01 648,497 c 0,67.99 -152.9,67.98 -152.9,135.96"
   id="path2192" />
	<line
   class="st1"
   x1="500.44"
   y1="246.39"
   x2="641.65997"
   y2="246.39"
   id="line2194" />
	<line
   class="st1"
   x1="501.44"
   y1="339.57001"
   x2="641.65997"
   y2="339.57001"
   id="line2196" />
	<line
   class="st1"
   x1="501.44"
   y1="382.28"
   x2="641.65997"
   y2="382.28"
   id="line2198" />
	<line
   class="st1"
   x1="501.44"
   y1="476.51001"
   x2="641.65997"
   y2="476.51001"
   id="line2200" />
	<line
   class="st1"
   x1="501.44"
   y1="519.21997"
   x2="641.65997"
   y2="519.21997"
   id="line2202" />
	<line
   class="st1"
   x1="501.44"
   y1="610.97998"
   x2="641.65997"
   y2="610.97998"
   id="line2204" />
</g>
</svg>
