<?xml version="1.0" encoding="UTF-8" standalone="no"?>
<svg
   width="156.5088mm"
   height="127.76915mm"
   viewBox="0 0 156.5088 127.76915"
   version="1.1"
   id="svg5"
   inkscape:version="1.1-dev (9017afb, 2021-01-01)"
   sodipodi:docname="bg-pattern.svg"
   inkscape:export-filename="/Users/meren/github/anvio.org/images/bg-pattern.png"
   inkscape:export-xdpi="48.687355"
   inkscape:export-ydpi="48.687355"
   xmlns:inkscape="http://www.inkscape.org/namespaces/inkscape"
   xmlns:sodipodi="http://sodipodi.sourceforge.net/DTD/sodipodi-0.dtd"
   xmlns="http://www.w3.org/2000/svg"
   xmlns:svg="http://www.w3.org/2000/svg">
  <sodipodi:namedview
     id="namedview7"
     pagecolor="#ffffff"
     bordercolor="#666666"
     borderopacity="1.0"
     objecttolerance="10.0"
     gridtolerance="10.0"
     guidetolerance="10.0"
     inkscape:pageshadow="2"
     inkscape:pageopacity="0.0"
     inkscape:pagecheckerboard="0"
     inkscape:document-units="mm"
     showgrid="false"
     inkscape:snap-global="false"
     fit-margin-top="0"
     fit-margin-left="0"
     fit-margin-right="0"
     fit-margin-bottom="0"
     inkscape:zoom="2.904067"
     inkscape:cx="293.20948"
     inkscape:cy="246.72295"
     inkscape:window-width="2160"
     inkscape:window-height="3787"
     inkscape:window-x="0"
     inkscape:window-y="25"
     inkscape:window-maximized="1"
     inkscape:current-layer="layer1" />
  <defs
     id="defs2">
    <inkscape:path-effect
       lpeversion="0"
       effect="spiro"
       id="path-effect9265"
       is_visible="true" />
    <inkscape:path-effect
       lpeversion="0"
       is_visible="true"
       id="path-effect96730"
       effect="spiro" />
    <inkscape:path-effect
       lpeversion="0"
       effect="spiro"
       id="path-effect96724"
       is_visible="true" />
    <inkscape:path-effect
       lpeversion="0"
       is_visible="true"
       id="path-effect96721"
       effect="spiro" />
    <inkscape:path-effect
       lpeversion="0"
       is_visible="true"
       id="path-effect96717"
       effect="spiro" />
    <inkscape:path-effect
       lpeversion="0"
       effect="spiro"
       id="path-effect96714"
       is_visible="true" />
    <inkscape:path-effect
       lpeversion="0"
       effect="spiro"
       id="path-effect96708"
       is_visible="true" />
    <inkscape:path-effect
       lpeversion="0"
       is_visible="true"
       id="path-effect96704"
       effect="spiro" />
    <inkscape:path-effect
       lpeversion="0"
       is_visible="true"
       id="path-effect96700"
       effect="spiro" />
    <inkscape:path-effect
       lpeversion="0"
       is_visible="true"
       id="path-effect96696"
       effect="spiro" />
    <inkscape:path-effect
       lpeversion="0"
       effect="spiro"
       id="path-effect96690"
       is_visible="true" />
    <inkscape:path-effect
       lpeversion="0"
       is_visible="true"
       id="path-effect96686"
       effect="spiro" />
    <inkscape:path-effect
       lpeversion="0"
       effect="spiro"
       id="path-effect96683"
       is_visible="true" />
    <inkscape:path-effect
       lpeversion="0"
       effect="spiro"
       id="path-effect96668"
       is_visible="true" />
    <inkscape:path-effect
       lpeversion="0"
       is_visible="true"
       id="path-effect96353"
       effect="spiro" />
    <inkscape:path-effect
       lpeversion="0"
       effect="spiro"
       id="path-effect96349"
       is_visible="true" />
    <inkscape:path-effect
       lpeversion="0"
       is_visible="true"
       id="path-effect96343"
       effect="spiro" />
    <inkscape:path-effect
       lpeversion="0"
       is_visible="true"
       id="path-effect96335"
       effect="spiro" />
    <inkscape:path-effect
       lpeversion="0"
       effect="spiro"
       id="path-effect96331"
       is_visible="true" />
    <inkscape:path-effect
       lpeversion="0"
       effect="spiro"
       id="path-effect96325"
       is_visible="true" />
    <inkscape:path-effect
       lpeversion="0"
       is_visible="true"
       id="path-effect96321"
       effect="spiro" />
    <inkscape:path-effect
       lpeversion="0"
       effect="spiro"
       id="path-effect96315"
       is_visible="true" />
  </defs>
  <g
     inkscape:label="Layer 1"
     inkscape:groupmode="layer"
     id="layer1"
     transform="translate(98.028107,494.29019)">
    <g
       id="g14325"
       style="opacity:0.3">
      <g
         id="g6768"
         transform="translate(-85.111387,-395.13614)">
        <path
           style="stroke-width:0.529167;stroke-miterlimit:4;stroke-dasharray:none"
           inkscape:connector-curvature="0"
           d="m 127.41744,-38.969877 c 0,-0.643599 -0.54083,-1.165266 -1.20715,-1.165266 h -8.30464 c -0.64039,0 -1.15946,0.500676 -1.15946,1.118369 v 9.719629 c 0,0.643598 0.54083,1.165265 1.20808,1.165265 h 8.25463 c 0.66725,0 1.20808,-0.521667 1.20808,-1.165265 z m -1.20344,8.791971 c 0,0.489064 -0.41165,0.885674 -0.91821,0.885674 h -6.42841 c -0.50703,0 -0.91821,-0.397057 -0.91821,-0.885674 v -7.941135 c 0,-0.489064 0.41118,-0.885674 0.91821,-0.885674 h 6.42841 c 0.50656,0 0.91728,0.39661 0.91728,0.885674 z"
           id="path5300" />
        <path
           id="path5306"
           d="m 123.74825,-31.889439 c 0.0292,-0.624892 -0.0122,-1.304878 -0.64058,-1.933159 -0.62821,-0.62828 -1.30827,-0.669748 -1.93309,-0.640507 0.0291,-0.624892 -0.0122,-1.304878 -0.64051,-1.933306 l -0.33771,0.337563 c 0.12021,0.120058 0.21184,0.241147 0.28336,0.36371 l -1.04466,1.044728 c -0.12256,-0.07152 -0.24365,-0.163147 -0.36371,-0.283353 l -0.33756,0.337563 c 0.62835,0.62828 1.30834,0.669601 1.93323,0.640507 -0.0292,0.624818 0.0122,1.304731 0.64051,1.933085 0.62828,0.628354 1.30827,0.669748 1.93323,0.640581 -0.0292,0.624818 0.0121,1.304878 0.64044,1.933159 l 0.33763,-0.337563 c -0.14355,-0.14348 -0.24814,-0.288287 -0.32386,-0.435598 l 1.01335,-1.01335 c 0.14731,0.07579 0.29212,0.180382 0.4356,0.323789 l 0.33756,-0.337636 c -0.62835,-0.628133 -1.30849,-0.66938 -1.93323,-0.640213 z m -3.05309,-2.545529 c -0.30258,0.01635 -0.58762,0.01834 -0.86162,-0.05141 l 0.81028,-0.810283 c 0.0697,0.273998 0.0677,0.559045 0.0513,0.861695 z m 0.50255,1.312759 c -0.0697,-0.273998 -0.0678,-0.55897 -0.0514,-0.86162 0.30265,-0.01635 0.58769,-0.01834 0.86162,0.05141 z m 0.44723,0.762186 c -0.11998,-0.120132 -0.21161,-0.241 -0.2832,-0.36371 l 1.04473,-1.044581 c 0.12256,0.07152 0.24365,0.163147 0.36371,0.283205 0.0863,0.08632 0.1571,0.173164 0.21758,0.260667 l -1.082,1.081997 c -0.0876,-0.06047 -0.17442,-0.131254 -0.26082,-0.217578 z m 1.62396,0.498794 c -0.35075,0.01886 -0.67741,0.01797 -0.99103,-0.09082 l 0.90021,-0.900216 c 0.10879,0.313551 0.10975,0.640286 0.0908,0.991033 z m 0.48229,1.22047 c -0.0484,-0.245715 -0.0457,-0.500636 -0.0311,-0.769331 0.26869,-0.01451 0.52361,-0.01723 0.76933,0.03116 z"
           inkscape:connector-curvature="0"
           style="stroke-width:0.0736554" />
        <text
           id="text5338"
           y="-36.731323"
           x="118.33872"
           style="font-style:normal;font-variant:normal;font-weight:800;font-stretch:normal;font-size:0.595991px;line-height:0%;font-family:'Hiragino Kaku Gothic StdN';-inkscape-font-specification:'Hiragino Kaku Gothic StdN Ultra-Bold';text-align:start;letter-spacing:-0.113888px;word-spacing:0px;writing-mode:lr-tb;text-anchor:start;fill:#000000;fill-opacity:1;stroke:none;stroke-width:0.0496659"
           xml:space="preserve"><tspan
             style="font-size:2.04999px;line-height:1.25;stroke-width:0.0496659"
             y="-36.731323"
             x="118.33872"
             id="tspan5340"
             sodipodi:role="line">FASTA</tspan></text>
      </g>
      <path
         inkscape:connector-curvature="0"
         d="m -37.755248,-432.84865 c 0.01018,0.47336 0.172999,0.82586 0.66141,0.80573 0.48843,-0.0201 0.42737,-0.10072 0.508772,-0.141 0.08139,-0.0403 0.366323,-0.23165 0.681763,-0.24172 1.210636,-0.0387 1.079411,1.44022 0.06104,1.44022 -0.122117,0 -0.508772,-0.12084 -0.702105,-0.31222 -0.193331,-0.19135 -1.241404,-0.13091 -1.129472,0.65466 0.04294,0.30143 0.252855,0.84769 0.273539,1.33998 0.01221,0.289 -0.04531,0.55794 -0.08839,0.78978 1.045476,-0.27342 1.252298,-0.3044 2.236607,-0.0752 0.17298,0.0403 0.885258,-0.0705 0.468064,-0.6043 -0.417193,-0.53379 -0.407017,-1.12801 -0.111921,-1.32944 0.295086,-0.20143 0.80387,-0.32229 1.109133,-0.18128 0.305264,0.141 0.722457,0.58414 0.468064,1.00715 -0.254379,0.42301 -0.610525,0.51365 -0.50877,0.86615 0.101745,0.35251 0.630879,0.44316 1.200711,0.48343 0.243114,0.0172 0.73894,0.0389 1.122583,-0.0459 0.211935,-0.0468 0.402008,-0.11374 0.5525,-0.17636 -0.02875,-0.96047 -0.04392,-1.82241 -0.05717,-1.92298 -0.04093,-0.31048 -0.484828,-0.66313 -0.936144,-0.50359 -0.142469,0.0504 -0.162804,0.23165 -0.559654,0.25179 -1.636814,0.0831 -1.171625,-2.39953 0.559654,-1.39993 0.370776,0.21407 1.338694,0.27606 1.200698,-0.63451 -0.06104,-0.40287 -0.437546,-1.45031 -0.437546,-1.45031 0,0 -2.082803,0.24059 -2.767734,-0.29207 -0.284909,-0.22157 -0.193331,-0.60429 -0.07122,-0.82587 0.122117,-0.22157 0.427372,-0.39278 0.417193,-0.67479 -0.04672,-1.29496 -1.947973,-1.26317 -1.85193,0.0201 0.02033,0.27193 0.274733,0.42301 0.386664,0.63451 0.25112,0.47452 -0.14258,0.95565 -0.712279,1.04744 -0.193916,0.0312 -0.958856,0.085 -1.739907,0.0737 -0.01946,-2.7e-4 -0.03895,-6.2e-4 -0.05841,-9.9e-4 -0.08569,0.50437 -0.181417,1.1335 -0.175737,1.39773 z"
         style="fill:none;fill-opacity:1;stroke:#c1ac40;stroke-width:0.5;stroke-miterlimit:4;stroke-dasharray:none;stroke-opacity:1"
         id="path5561" />
      <path
         inkscape:connector-curvature="0"
         d="m -32.626799,-428.34668 c -0.569832,-0.0403 -1.098958,-0.13091 -1.200711,-0.48343 -0.101764,-0.35251 0.254391,-0.44315 0.50877,-0.86615 0.254393,-0.42301 -0.162804,-0.86616 -0.468064,-1.00715 -0.305263,-0.141 -0.814047,-0.0201 -1.109133,0.18128 -0.295086,0.20143 -0.305263,0.79565 0.111921,1.32944 0.417194,0.53379 -0.295085,0.64458 -0.468064,0.6043 -0.984309,-0.22923 -1.191131,-0.19825 -2.236607,0.0752 -0.02783,0.14981 -0.04968,0.28427 -0.0427,0.39819 0.02035,0.33236 0.254393,1.49059 0.213686,1.67188 -0.04071,0.18128 -0.386665,0.68487 -0.814034,0.39278 -0.427372,-0.29207 -0.580009,-0.37264 -0.885273,-0.34242 -0.305262,0.0302 -0.691927,0.20143 -0.691927,0.66471 0,0.4633 0.28491,0.81581 0.783505,0.76544 0.507938,-0.0513 1.337223,-0.66378 1.546681,0.13093 0.122117,0.46329 0.132275,0.92658 0.122117,1.22873 -0.005,0.146 -0.109627,0.52714 -0.21652,0.88212 0.844657,0.0391 1.745246,-4.1e-4 1.956519,-0.0361 0.978413,-0.16533 0.95154,-0.90895 0.498596,-1.41001 -0.17298,-0.19137 -0.295086,-0.59423 -0.183157,-0.87623 0.222284,-0.56003 1.436326,-0.60826 1.831591,-0.16114 0.284907,0.32229 0.07122,1.03738 -0.132293,1.17837 -0.406381,0.28157 -0.305899,0.91696 0.132293,1.21866 0.852673,0.5871 2.68633,0.20144 2.68633,0.20144 0,0 -0.122117,-1.00716 -0.132293,-1.71217 -0.01018,-0.705 0.600348,-0.58414 0.702103,-0.58414 0.101764,0 0.295086,0.141 0.437548,0.25178 0.142469,0.11079 0.254391,0.282 0.580008,0.30214 1.264236,0.0782 1.186918,-1.34188 0.03051,-1.54094 -0.234039,-0.0403 -0.468064,0.0806 -0.783503,0.30215 -0.315441,0.22157 -0.702116,0.0201 -0.895449,-0.19136 -0.109406,-0.11967 -0.169909,-1.53878 -0.207377,-2.79049 -0.150499,0.0626 -0.340565,0.12954 -0.5525,0.17635 -0.383643,0.0848 -0.879469,0.0631 -1.122583,0.0459 z"
         style="fill:none;fill-opacity:1;stroke:#cb3333;stroke-width:0.5;stroke-miterlimit:4;stroke-dasharray:none;stroke-opacity:1"
         id="path5563" />
      <path
         inkscape:connector-curvature="0"
         d="m -39.688578,-433.18102 c 0.463453,0.47784 0.09279,1.25783 -0.702118,1.29924 -0.802174,0.0418 -1.356542,-0.88779 -0.66129,-1.4401 0.277079,-0.22012 0.210916,-0.60422 -0.285028,-0.79579 -0.688335,-0.26587 -2.421763,0.0201 -2.421763,0.0201 0,0 0.28071,0.73527 0.295086,1.6316 0.01018,0.63449 -0.885265,0.56399 -1.037896,0.4935 -0.152628,-0.0705 -0.468072,-0.35251 -0.691934,-0.35251 -1.413553,0 -1.294182,1.93699 0.06106,1.57116 0.223855,-0.0604 0.447717,-0.30215 0.783511,-0.26185 0.335793,0.0403 0.508772,0.27192 0.508772,0.6345 0,0.17244 -0.01388,0.94403 -0.03268,1.79356 0.890625,0.0217 2.015513,0.0429 2.271283,0.0193 0.437535,-0.0403 0.702105,-0.32229 0.498596,-0.54385 -0.203508,-0.22158 -0.875095,-0.98702 -0.254392,-1.45031 0.620701,-0.46329 1.536503,-0.20143 1.648434,0.2115 0.111922,0.41293 0.02035,0.70501 -0.132293,0.85608 -0.152646,0.15107 -0.66141,0.53379 -0.366323,0.79566 0.295099,0.26185 1.149828,0.59422 2.197913,0.32229 0.19528,-0.0507 0.367132,-0.0961 0.520949,-0.13633 0.04307,-0.23185 0.100524,-0.50078 0.08839,-0.78979 -0.02069,-0.49229 -0.230593,-1.03854 -0.273539,-1.33998 -0.111941,-0.78557 0.936141,-0.84601 1.129473,-0.65465 0.193333,0.19137 0.579995,0.31221 0.702104,0.31221 1.018364,0 1.149589,-1.47887 -0.06104,-1.44022 -0.31544,0.0101 -0.600363,0.20143 -0.681763,0.24172 -0.08141,0.0403 -0.02033,0.12086 -0.508771,0.141 -0.488419,0.0201 -0.651233,-0.33236 -0.661411,-0.80573 -0.0057,-0.26423 0.09003,-0.89336 0.175737,-1.39773 -0.756247,-0.0139 -1.513792,-0.0867 -1.732579,-0.11299 -0.570402,-0.0684 -1.010189,0.525 -0.376486,1.17836 z"
         style="fill:none;fill-opacity:1;stroke:#3ec267;stroke-width:0.5;stroke-miterlimit:4;stroke-dasharray:none;stroke-opacity:1"
         id="path5565" />
      <path
         inkscape:connector-curvature="0"
         d="m -37.378747,-424.83171 c -0.209458,-0.79471 -1.038744,-0.18223 -1.546681,-0.13093 -0.498596,0.0504 -0.783505,-0.30214 -0.783505,-0.76544 0,-0.46328 0.386664,-0.63451 0.691926,-0.66471 0.305265,-0.0302 0.457901,0.0503 0.885273,0.34242 0.42737,0.29209 0.773327,-0.2115 0.814034,-0.39278 0.04071,-0.18129 -0.193331,-1.33952 -0.213686,-1.67188 -0.007,-0.11392 0.0148,-0.24838 0.0427,-0.39819 -0.153811,0.0402 -0.325669,0.0857 -0.520948,0.13633 -1.048086,0.27193 -1.902814,-0.0604 -2.197913,-0.32229 -0.295088,-0.26186 0.213684,-0.64458 0.366322,-0.79566 0.152646,-0.15107 0.244215,-0.44315 0.132293,-0.85608 -0.11194,-0.41293 -1.027732,-0.67478 -1.648433,-0.2115 -0.620703,0.4633 0.05088,1.22874 0.254391,1.45031 0.203509,0.22156 -0.06106,0.50358 -0.498595,0.54385 -0.25577,0.0236 -1.380658,0.002 -2.271284,-0.0193 -0.0208,0.93678 -0.04774,1.96838 -0.06909,2.3962 -0.04071,0.81579 0.691934,0.54386 0.864912,0.50357 0.172999,-0.0403 0.284923,-0.30214 0.742811,-0.33236 1.163834,-0.0768 1.16863,1.56448 0.03053,1.5913 -0.42737,0.0101 -0.824211,-0.44315 -0.976849,-0.54386 -0.152628,-0.10072 -0.549472,-0.12086 -0.661403,0.28199 -0.04825,0.17367 -0.154052,0.63676 -0.154589,1.02727 -7.36e-4,0.51547 0.113902,0.95684 0.113902,0.95684 0,0 0.630879,-0.141 1.821414,-0.141 1.190533,0 1.363512,0.57408 1.231228,0.86615 -0.132275,0.29208 -0.36631,0.27193 -0.417194,0.65466 -0.18188,1.36803 2.006397,1.28666 1.892638,0.0403 -0.03201,-0.35071 -0.325219,-0.34955 -0.457888,-0.72515 -0.274017,-0.77576 0.335781,-0.91651 0.68175,-0.88629 0.168133,0.0146 0.910714,0.13553 1.719447,0.17535 0.01258,6.2e-4 0.02538,0.001 0.03808,0.002 0.106889,-0.35498 0.211605,-0.73612 0.216521,-0.88212 0.01018,-0.30214 0,-0.76544 -0.122117,-1.22872 z"
         style="fill:none;fill-opacity:1;stroke:#3d4abd;stroke-width:0.5;stroke-miterlimit:4;stroke-dasharray:none;stroke-opacity:1"
         id="path5567" />
      <g
         id="g6160"
         transform="matrix(1.5607205,0,0,1.5607205,-129.12476,-333.65694)"
         style="stroke-width:0.64073">
        <path
           id="path6191"
           d="m 82.647098,-39.096115 c -2.941061,0 -6.105405,0.702856 -6.105405,2.247204 v 6.568751 c 0,1.543656 3.164344,2.247204 6.105405,2.247204 2.940624,0 6.105404,-0.703548 6.105404,-2.247204 v -6.568751 c 0,-1.544348 -3.165216,-2.247204 -6.105404,-2.247204 z m 5.233204,8.815955 c 0,0.858777 -2.343167,1.555756 -5.233204,1.555756 -2.890473,0 -5.233204,-0.696979 -5.233204,-1.555756 v -1.291624 c 0.900983,0.736046 3.074507,1.118762 5.233204,1.118762 2.158696,0 4.33222,-0.382716 5.233204,-1.118762 z m 0,-2.074343 h -0.0017 c 0,0.0035 0.0017,0.0073 0.0017,0.01072 0,0.853592 -2.343167,1.545039 -5.233204,1.545039 -2.890037,0 -5.233204,-0.691447 -5.233204,-1.545039 0,-0.0035 0.0017,-0.0073 0.0017,-0.01072 h -0.0017 v -1.291623 c 0.900983,0.736045 3.074507,1.118761 5.233204,1.118761 2.158696,0 4.33222,-0.382716 5.233204,-1.118761 z m 0,-2.074342 h -0.0017 c 0,0.0035 0.0017,0.0073 0.0017,0.01072 0,0.853591 -2.343167,1.545039 -5.233204,1.545039 -2.890037,0 -5.233204,-0.691448 -5.233204,-1.545039 0,-0.0035 0.0017,-0.0073 0.0017,-0.01072 h -0.0017 v -1.187907 c 1.143019,0.690411 3.238045,1.015045 5.233204,1.015045 1.995159,0 4.090185,-0.324634 5.233204,-1.015045 z m -5.233204,-0.864309 c -2.890473,0 -5.233204,-0.696979 -5.233204,-1.555757 0,-0.859469 2.342731,-1.555757 5.233204,-1.555757 2.890037,0 5.233204,0.696288 5.233204,1.555757 0,0.858778 -2.343167,1.555757 -5.233204,1.555757 z"
           style="fill:#010002;stroke-width:0.24879"
           inkscape:connector-curvature="0" />
        <ellipse
           id="circle6193"
           cy="-30.107298"
           cx="86.060753"
           style="fill:#010002;stroke-width:0.24879"
           rx="0.43610033"
           ry="0.34572372" />
        <ellipse
           id="circle6195"
           cy="-32.181641"
           cx="86.060753"
           style="fill:#010002;stroke-width:0.24879"
           rx="0.43610033"
           ry="0.34572372" />
        <ellipse
           id="circle6197"
           cy="-34.255981"
           cx="86.060753"
           style="fill:#010002;stroke-width:0.24879"
           rx="0.43610033"
           ry="0.34572372" />
      </g>
      <g
         id="g6335"
         transform="matrix(1.069775,0,0,1.069775,-181.94824,-435.65387)"
         style="stroke-width:0.934777">
        <path
           inkscape:connector-curvature="0"
           d="m 203.71901,-30.626485 -0.24576,-0.09053 c 0.0194,-0.179198 0.013,-0.361843 -0.0207,-0.543339 l 0.23728,-0.109357 c 0.14825,-0.06816 0.21323,-0.244441 0.14489,-0.392608 l -0.13853,-0.300578 c -0.0683,-0.148168 -0.24426,-0.213322 -0.39225,-0.145073 l -0.23763,0.109534 c -0.11608,-0.143836 -0.25081,-0.267249 -0.39951,-0.369181 l 0.0907,-0.245324 c 0.0564,-0.15303 -0.0221,-0.323652 -0.17505,-0.380232 l -0.31074,-0.11475 c -0.14826,-0.05455 -0.32533,0.02696 -0.37997,0.174954 l -0.0906,0.24559 c -0.17902,-0.0191 -0.36167,-0.01291 -0.54334,0.0206 l -0.10936,-0.237368 c -0.0683,-0.148168 -0.24444,-0.213234 -0.39243,-0.145073 l -0.30084,0.138354 c -0.14817,0.06834 -0.21306,0.244706 -0.14499,0.392608 l 0.10936,0.237279 c -0.14357,0.116253 -0.26725,0.250983 -0.369,0.399858 l -0.24524,-0.0907 c -0.14808,-0.05516 -0.32542,0.02652 -0.38032,0.174954 l -0.11466,0.310744 c -0.0273,0.07426 -0.0241,0.154621 0.009,0.226406 0.0332,0.07179 0.0923,0.12642 0.1662,0.153384 l 0.24577,0.09088 c -0.0195,0.178933 -0.0131,0.361931 0.0207,0.543339 l -0.23754,0.109357 c -0.14817,0.06816 -0.21306,0.244264 -0.1449,0.392343 l 0.13862,0.300932 c 0.0682,0.148079 0.24427,0.213145 0.39235,0.144808 l 0.23754,-0.109181 c 0.11608,0.143747 0.25072,0.267072 0.39959,0.369004 l -0.0907,0.245501 c -0.0276,0.07408 -0.0244,0.154267 0.009,0.226229 0.0328,0.07178 0.092,0.126597 0.16611,0.154091 l 0.31075,0.114573 c 0.0739,0.02741 0.15444,0.02414 0.22623,-0.0088 0.0719,-0.03315 0.12642,-0.09221 0.15364,-0.166379 l 0.0908,-0.245678 c 0.17902,0.01945 0.36184,0.013 0.54342,-0.02042 l 0.10918,0.237368 c 0.0683,0.147991 0.24453,0.213057 0.39252,0.144808 l 0.30076,-0.138442 c 0.14834,-0.06816 0.21332,-0.244264 0.1449,-0.392431 L 202.7849,-29.4518 c 0.14374,-0.116164 0.26734,-0.250894 0.36891,-0.399592 l 0.24559,0.09079 c 0.0744,0.02749 0.15471,0.02405 0.22659,-0.0091 0.0716,-0.03306 0.12606,-0.09212 0.15347,-0.166114 l 0.11466,-0.310744 c 0.0567,-0.152853 -0.0218,-0.323298 -0.17478,-0.379966 z m -1.62736,0.772927 c -0.15507,0.07152 -0.31959,0.107501 -0.48915,0.107501 -0.45546,0 -0.87274,-0.267161 -1.06307,-0.680455 -0.26982,-0.586216 -0.0127,-1.282496 0.57313,-1.552309 0.15497,-0.07152 0.3195,-0.107589 0.48879,-0.107589 0.45538,0 0.873,0.267072 1.06343,0.680455 0.26981,0.586216 0.0126,1.282496 -0.57313,1.552397 z"
           id="path4123"
           style="stroke-width:0.0826392" />
        <path
           inkscape:connector-curvature="0"
           d="m 206.6454,-29.779474 -0.13676,-0.0503 c 0.0109,-0.09981 0.007,-0.201564 -0.0116,-0.302611 l 0.13208,-0.06091 c 0.0827,-0.03784 0.11881,-0.135968 0.0807,-0.218626 l -0.0771,-0.16744 c -0.0382,-0.08266 -0.13605,-0.118994 -0.21845,-0.0808 l -0.13234,0.06091 c -0.0645,-0.08001 -0.13968,-0.148963 -0.22234,-0.205543 l 0.0504,-0.136674 c 0.0314,-0.08522 -0.0124,-0.180082 -0.0975,-0.211819 l -0.1731,-0.06383 c -0.0826,-0.03059 -0.18105,0.01485 -0.21164,0.09742 l -0.0505,0.136851 c -0.0995,-0.0107 -0.20139,-0.0072 -0.30243,0.01149 l -0.0608,-0.131989 c -0.0382,-0.08257 -0.13623,-0.118905 -0.21871,-0.0808 l -0.16753,0.07718 c -0.0826,0.03819 -0.11864,0.136144 -0.0807,0.218626 l 0.0609,0.132166 c -0.08,0.06471 -0.14888,0.139769 -0.20563,0.222693 l -0.1365,-0.05039 c -0.0823,-0.03068 -0.18114,0.01459 -0.21164,0.09733 l -0.064,0.173098 c -0.0151,0.04137 -0.0133,0.0862 0.005,0.126154 0.0186,0.03978 0.0515,0.07028 0.0927,0.0854 l 0.13676,0.05057 c -0.0109,0.09981 -0.007,0.201387 0.0115,0.302611 l -0.13217,0.06082 c -0.0826,0.0381 -0.11873,0.135967 -0.0807,0.218538 l 0.0773,0.167616 c 0.0379,0.08239 0.13597,0.118728 0.21845,0.08071 l 0.13217,-0.06082 c 0.0646,0.08001 0.13977,0.148786 0.22269,0.205366 l -0.0505,0.136586 c -0.0154,0.04137 -0.0136,0.0862 0.005,0.126154 0.0184,0.03987 0.0512,0.07046 0.0927,0.08584 l 0.17292,0.06383 c 0.0413,0.0152 0.0859,0.01344 0.12598,-0.005 0.04,-0.01839 0.0705,-0.05127 0.0856,-0.09247 l 0.0505,-0.137028 c 0.0998,0.01087 0.20138,0.0074 0.30261,-0.0114 l 0.0608,0.132166 c 0.038,0.08239 0.13606,0.118729 0.21845,0.08054 l 0.16762,-0.07709 c 0.0826,-0.03819 0.11864,-0.135967 0.0806,-0.218538 l -0.0608,-0.132254 c 0.0799,-0.06462 0.14887,-0.139504 0.20537,-0.222428 l 0.13676,0.05039 c 0.0414,0.01547 0.0862,0.01344 0.12624,-0.005 0.0397,-0.0183 0.0703,-0.05136 0.0855,-0.09256 l 0.0638,-0.173009 c 0.0315,-0.08522 -0.0123,-0.180347 -0.0973,-0.211819 z m -0.90615,0.430534 c -0.0864,0.0396 -0.17787,0.05985 -0.27229,0.05985 -0.25355,0 -0.48596,-0.148874 -0.59196,-0.378993 -0.15029,-0.326216 -0.007,-0.71405 0.31914,-0.864162 0.0863,-0.03978 0.17787,-0.05985 0.2722,-0.05985 0.25346,0 0.48588,0.148697 0.59196,0.378816 0.15012,0.326304 0.007,0.713873 -0.31905,0.864339 z"
           id="path4125"
           style="stroke-width:0.0826392" />
        <path
           inkscape:connector-curvature="0"
           d="m 209.74755,-34.986811 -0.41312,-0.152499 c 0.0326,-0.301197 0.0219,-0.608405 -0.0348,-0.913845 l 0.39907,-0.183618 c 0.24894,-0.114397 0.35821,-0.41082 0.24346,-0.660211 l -0.23286,-0.505501 c -0.11475,-0.249215 -0.41073,-0.358837 -0.65959,-0.243911 l -0.3995,0.184237 c -0.1952,-0.241788 -0.42178,-0.449276 -0.67153,-0.620605 l 0.15232,-0.412676 c 0.0948,-0.257348 -0.0369,-0.544135 -0.29421,-0.639082 l -0.52239,-0.193254 c -0.24912,-0.09159 -0.54687,0.04553 -0.63899,0.29439 l -0.15241,0.413118 c -0.30102,-0.03236 -0.60832,-0.02166 -0.91349,0.03457 l -0.18388,-0.398708 c -0.11475,-0.249214 -0.41074,-0.358571 -0.65995,-0.243821 l -0.50568,0.232859 c -0.24912,0.114839 -0.35848,0.411085 -0.24391,0.660034 l 0.18415,0.398973 c -0.24143,0.195464 -0.44936,0.421959 -0.62061,0.672145 l -0.41241,-0.15241 c -0.24886,-0.09274 -0.54705,0.04456 -0.63917,0.293859 l -0.19281,0.522652 c -0.0461,0.124651 -0.0407,0.259735 0.0147,0.380496 0.056,0.120585 0.15541,0.212438 0.27962,0.257879 l 0.41312,0.152941 c -0.0328,0.300843 -0.0221,0.608405 0.0347,0.913668 l -0.39907,0.183707 c -0.24921,0.114838 -0.3583,0.410642 -0.24364,0.659592 l 0.23295,0.506031 c 0.11475,0.248684 0.41073,0.358395 0.65977,0.243557 l 0.39915,-0.183883 c 0.1952,0.241788 0.42178,0.449364 0.67205,0.620517 l -0.15258,0.412764 c -0.0463,0.124386 -0.0409,0.259558 0.0148,0.380408 0.0553,0.120585 0.1548,0.212703 0.27927,0.258939 l 0.52239,0.192635 c 0.12456,0.04606 0.25973,0.04076 0.38041,-0.0145 0.12085,-0.0557 0.21252,-0.155063 0.25832,-0.279626 l 0.15285,-0.413295 c 0.30093,0.0328 0.60814,0.0221 0.91376,-0.03439 l 0.18353,0.398885 c 0.11475,0.248773 0.4109,0.358572 0.66003,0.243557 l 0.50568,-0.23286 c 0.24939,-0.114927 0.35839,-0.410731 0.24355,-0.659857 l -0.18379,-0.398973 c 0.24152,-0.195641 0.44945,-0.421782 0.62034,-0.671969 l 0.41303,0.152853 c 0.12474,0.04606 0.25991,0.04058 0.38076,-0.01512 0.12041,-0.05552 0.212,-0.154975 0.25806,-0.279273 l 0.19307,-0.522563 c 0.0947,-0.257171 -0.0373,-0.543958 -0.29447,-0.638817 z m -2.73588,1.299293 c -0.2608,0.119966 -0.53733,0.180877 -0.82226,0.180877 -0.76586,0 -1.46726,-0.449276 -1.78756,-1.144407 -0.45369,-0.985365 -0.0214,-2.156028 0.96353,-2.609635 0.26053,-0.120143 0.53724,-0.180789 0.82191,-0.180789 0.76576,0 1.46761,0.44901 1.78791,1.143964 0.45352,0.985631 0.0214,2.156382 -0.96353,2.60999 z"
           id="path4127"
           style="stroke-width:0.0826392" />
      </g>
      <g
         id="g7336"
         style="stroke-width:0.893244"
         transform="matrix(1.1195144,0,0,1.1195144,-306.28901,-347.10562)">
        <g
           id="g6397"
           style="stroke-width:0.893244">
          <g
             id="g6365"
             transform="translate(0,-1.2770495)"
             style="stroke-width:0.893244">
            <path
               style="opacity:0.548523;fill:#b3b3b3;stroke-width:0.0339128"
               inkscape:connector-curvature="0"
               d="m 239.85726,-37.531129 v -0.737033 c 0,-0.281228 0.22927,-0.510829 0.51117,-0.510829 v 0 c 0.28191,0 0.51117,0.229601 0.51117,0.510829 v 0 0.737033 c 0,0.281907 -0.22926,0.512187 -0.51117,0.512187 v 0 c -0.2819,0 -0.51117,-0.23028 -0.51117,-0.512187 z"
               id="path9000" />
            <path
               style="opacity:0.548523;fill:#b3b3b3;stroke-width:0.0339128"
               inkscape:connector-curvature="0"
               d="m 239.85726,-29.594604 v -0.736352 c 0,-0.281229 0.22927,-0.511511 0.51117,-0.511511 v 0 c 0.28191,0 0.51117,0.230282 0.51117,0.511511 v 0 0.736352 c 0,0.282588 -0.22926,0.512866 -0.51117,0.512866 v 0 c -0.2819,0 -0.51117,-0.230278 -0.51117,-0.512866 z"
               id="path9002" />
            <path
               style="opacity:0.548523;fill:#b3b3b3;stroke-width:0.0339128"
               inkscape:connector-curvature="0"
               d="m 242.5527,-36.114802 c -0.1987,-0.199712 -0.1987,-0.524754 0,-0.723108 v 0 l 0.52102,-0.520679 c 0.20005,-0.200391 0.52373,-0.200391 0.72344,0 v 0 c 0.20039,0.200392 0.20039,0.522717 0,0.72175 v 0 l -0.52101,0.522037 c -0.0999,0.09884 -0.23096,0.149105 -0.36139,0.149105 v 0 c -0.1311,0 -0.26152,-0.05027 -0.36206,-0.149105 z"
               id="path9004" />
            <path
               style="opacity:0.548523;fill:#b3b3b3;stroke-width:0.0339128"
               inkscape:connector-curvature="0"
               d="m 236.94004,-30.50282 c -0.1987,-0.199033 -0.1987,-0.523394 0,-0.723786 v 0 l 0.52135,-0.520679 c 0.20107,-0.199032 0.5234,-0.199032 0.72379,0 v 0 c 0.19903,0.201071 0.19903,0.523398 0,0.723789 v 0 l -0.52169,0.520676 c -0.0992,0.09952 -0.23097,0.149107 -0.36173,0.149107 v 0 c -0.13076,3.8e-4 -0.26221,-0.04959 -0.36172,-0.149107 z"
               id="path9006" />
            <path
               style="opacity:0.548523;fill:#b3b3b3;stroke-width:0.0339128"
               inkscape:connector-curvature="0"
               d="m 243.96937,-33.420384 c -0.28259,0 -0.51151,-0.228922 -0.51151,-0.510829 v 0 c 0,-0.282586 0.22892,-0.511508 0.51151,-0.511508 v 0 h 0.73669 c 0.28191,0 0.51185,0.23028 0.51185,0.511508 v 0 c 0,0.281907 -0.22994,0.510829 -0.51185,0.510829 v 0 z"
               id="path9008" />
            <path
               style="opacity:0.548523;fill:#b3b3b3;stroke-width:0.0339128"
               inkscape:connector-curvature="0"
               d="m 236.03182,-33.420384 c -0.28224,0 -0.51117,-0.228583 -0.51117,-0.510829 v 0 c 0,-0.282586 0.22893,-0.511508 0.51117,-0.511508 v 0 h 0.7367 c 0.2819,0 0.51116,0.23028 0.51116,0.511508 v 0 c 0,0.281907 -0.22926,0.510829 -0.51116,0.510829 v 0 z"
               id="path9010" />
            <path
               style="opacity:0.548523;fill:#b3b3b3;stroke-width:0.0339128"
               inkscape:connector-curvature="0"
               d="m 243.07372,-30.50282 -0.52102,-0.522035 c -0.1987,-0.199032 -0.1987,-0.521359 0.001,-0.72243 v 0 c 0.19937,-0.199032 0.52272,-0.199032 0.72243,0 v 0 l 0.52102,0.520679 c 0.19903,0.200392 0.19903,0.524753 0,0.723786 v 0 c -0.10054,0.09952 -0.2313,0.149107 -0.36173,0.149107 v 0 c -0.13042,3.8e-4 -0.26152,-0.04959 -0.36172,-0.149107 v 0 z"
               id="path9012" />
            <path
               style="opacity:0.548523;fill:#b3b3b3;stroke-width:0.0339128"
               inkscape:connector-curvature="0"
               d="m 237.46139,-36.114802 -0.52135,-0.522037 c -0.1987,-0.199033 -0.1987,-0.522716 0,-0.72175 v 0 c 0.20005,-0.200391 0.52373,-0.200391 0.72345,0 v 0 l 0.52169,0.520679 c 0.19903,0.198354 0.19903,0.523396 0,0.723108 v 0 c -0.10054,0.09884 -0.23096,0.149105 -0.36172,0.149105 v 0 c -0.13111,0 -0.26187,-0.05027 -0.36207,-0.149105 z"
               id="path9014" />
            <path
               id="path7318"
               d="m 240.28012,-35.33302 c -1.56048,0 -2.37855,1.149714 -2.37855,1.331986 0,0.182322 0.81807,1.331987 2.37855,1.331987 1.56037,0 2.37854,-1.149665 2.37854,-1.331987 0,-0.182272 -0.81817,-1.331986 -2.37854,-1.331986 z m 0,2.356614 c -0.58382,0 -1.05718,-0.458734 -1.05718,-1.024628 0,-0.565894 0.47336,-1.024628 1.05718,-1.024628 0.58382,0 1.05712,0.458734 1.05712,1.024628 0,0.565894 -0.4733,1.024628 -1.05712,1.024628 z m 0.52854,-1.024628 c 0,0.282922 -0.23671,0.512364 -0.52854,0.512364 -0.29194,0 -0.52854,-0.229442 -0.52854,-0.512364 0,-0.282922 0.2366,-0.512314 0.52854,-0.512314 0.15773,0 -0.0968,0.406006 0,0.512314 0.0823,0.09028 0.52854,-0.129943 0.52854,0 z"
               style="fill:#030104;stroke-width:0.044729"
               inkscape:connector-curvature="0" />
          </g>
        </g>
      </g>
      <g
         id="g6021"
         transform="translate(7.4001282,-373.54301)">
        <circle
           r="0.73685032"
           cy="-15.712331"
           cx="26.198376"
           id="circle96452"
           style="fill:#7b0000;fill-opacity:1;fill-rule:evenodd;stroke:none;stroke-width:0.0484627;stroke-linecap:round;stroke-linejoin:miter;stroke-miterlimit:4;stroke-dasharray:none;stroke-dashoffset:0;stroke-opacity:1" />
        <circle
           style="fill:#005432;fill-opacity:1;fill-rule:evenodd;stroke:none;stroke-width:0.0484627;stroke-linecap:round;stroke-linejoin:miter;stroke-miterlimit:4;stroke-dasharray:none;stroke-dashoffset:0;stroke-opacity:1"
           id="circle96454"
           cx="26.63995"
           cy="-12.826946"
           r="0.80403435" />
        <circle
           r="0.80403435"
           cy="-10.250487"
           cx="25.447912"
           id="circle96456"
           style="fill:#005432;fill-opacity:1;fill-rule:evenodd;stroke:none;stroke-width:0.0484627;stroke-linecap:round;stroke-linejoin:miter;stroke-miterlimit:4;stroke-dasharray:none;stroke-dashoffset:0;stroke-opacity:1" />
        <path
           inkscape:connector-curvature="0"
           inkscape:original-d="m 25.499194,-10.350525 1.133627,-2.314004"
           inkscape:path-effect="#path-effect9265"
           id="path96458"
           d="m 25.499194,-10.350525 1.133627,-2.314004"
           style="fill:#000000;fill-rule:evenodd;stroke:#005432;stroke-width:0.390711px;stroke-linecap:butt;stroke-linejoin:miter;stroke-opacity:1" />
        <path
           inkscape:connector-curvature="0"
           inkscape:original-d="m 31.348353,-9.5005705 0.98801,-2.1612715"
           inkscape:path-effect="#path-effect96315"
           id="path96462"
           d="m 31.348353,-9.5005705 0.98801,-2.1612715"
           style="fill:#00007e;fill-opacity:1;fill-rule:evenodd;stroke:#00007e;stroke-width:0.360328px;stroke-linecap:butt;stroke-linejoin:miter;stroke-opacity:1" />
        <circle
           style="fill:#00007e;fill-opacity:1;fill-rule:evenodd;stroke:none;stroke-width:0.0544479;stroke-linecap:round;stroke-linejoin:miter;stroke-miterlimit:4;stroke-dasharray:none;stroke-dashoffset:0;stroke-opacity:1"
           id="circle96464"
           cx="32.367752"
           cy="-11.770401"
           r="0.74151236" />
        <circle
           r="0.74151236"
           cy="-9.4238806"
           cx="31.194483"
           id="circle96466"
           style="fill:#00007e;fill-opacity:1;fill-rule:evenodd;stroke:none;stroke-width:0.0544479;stroke-linecap:round;stroke-linejoin:miter;stroke-miterlimit:4;stroke-dasharray:none;stroke-dashoffset:0;stroke-opacity:1" />
        <circle
           r="0.74151236"
           cy="-9.4856262"
           cx="33.726257"
           id="circle96468"
           style="fill:#00007e;fill-opacity:1;fill-rule:evenodd;stroke:none;stroke-width:0.0544479;stroke-linecap:round;stroke-linejoin:miter;stroke-miterlimit:4;stroke-dasharray:none;stroke-dashoffset:0;stroke-opacity:1" />
        <path
           style="fill:#00007e;fill-opacity:1;fill-rule:evenodd;stroke:#00007e;stroke-width:0.360328px;stroke-linecap:butt;stroke-linejoin:miter;stroke-opacity:1"
           d="m 31.303167,-9.4933344 2.375143,0.077128"
           id="path96470"
           inkscape:path-effect="#path-effect96321"
           inkscape:original-d="m 31.303167,-9.4933344 2.375143,0.077128"
           inkscape:connector-curvature="0" />
        <path
           inkscape:connector-curvature="0"
           inkscape:original-d="m 32.396084,-11.657372 1.239068,2.0278035"
           inkscape:path-effect="#path-effect96325"
           id="path96472"
           d="m 32.396084,-11.657372 1.239068,2.0278035"
           style="fill:#00007e;fill-opacity:1;fill-rule:evenodd;stroke:#00007e;stroke-width:0.360328px;stroke-linecap:butt;stroke-linejoin:miter;stroke-opacity:1" />
        <circle
           style="fill:#00007e;fill-opacity:1;fill-rule:evenodd;stroke:none;stroke-width:0.0544479;stroke-linecap:round;stroke-linejoin:miter;stroke-miterlimit:4;stroke-dasharray:none;stroke-dashoffset:0;stroke-opacity:1"
           id="circle96474"
           cx="28.693571"
           cy="-10.427332"
           r="0.74151236" />
        <path
           inkscape:connector-curvature="0"
           inkscape:original-d="m 28.753943,-10.406355 2.568869,0.9923485"
           inkscape:path-effect="#path-effect96331"
           id="path96476"
           d="m 28.753943,-10.406355 2.568869,0.9923485"
           style="fill:#00007e;fill-opacity:1;fill-rule:evenodd;stroke:#00007e;stroke-width:0.360328px;stroke-linecap:butt;stroke-linejoin:miter;stroke-opacity:1" />
        <path
           style="fill:#00007e;fill-opacity:1;fill-rule:evenodd;stroke:#00007e;stroke-width:0.360328px;stroke-linecap:butt;stroke-linejoin:miter;stroke-opacity:1"
           d="m 28.714447,-10.522166 3.751273,-1.246046"
           id="path96478"
           inkscape:path-effect="#path-effect96335"
           inkscape:original-d="m 28.714447,-10.522166 3.751273,-1.246046"
           inkscape:connector-curvature="0" />
        <circle
           r="0.69347352"
           cy="-16.29355"
           cx="30.099199"
           id="circle96482"
           style="fill:#000000;fill-opacity:1;fill-rule:evenodd;stroke:none;stroke-width:0.0693474;stroke-linecap:round;stroke-linejoin:miter;stroke-miterlimit:4;stroke-dasharray:none;stroke-dashoffset:0;stroke-opacity:1" />
        <circle
           style="fill:#000000;fill-opacity:1;fill-rule:evenodd;stroke:none;stroke-width:0.0693474;stroke-linecap:round;stroke-linejoin:miter;stroke-miterlimit:4;stroke-dasharray:none;stroke-dashoffset:0;stroke-opacity:1"
           id="circle96484"
           cx="29.001945"
           cy="-14.099039"
           r="0.69347352" />
        <path
           style="fill:#000000;fill-rule:evenodd;stroke:#000000;stroke-width:0.336985px;stroke-linecap:butt;stroke-linejoin:miter;stroke-opacity:1"
           d="m 29.059219,-14.21407 0.924001,-2.021253"
           id="path96486"
           inkscape:path-effect="#path-effect96343"
           inkscape:original-d="m 29.059219,-14.21407 0.924001,-2.021253"
           inkscape:connector-curvature="0" />
        <circle
           style="fill:#000000;fill-opacity:1;fill-rule:evenodd;stroke:none;stroke-width:0.0693474;stroke-linecap:round;stroke-linejoin:miter;stroke-miterlimit:4;stroke-dasharray:none;stroke-dashoffset:0;stroke-opacity:1"
           id="circle96488"
           cx="31.369698"
           cy="-14.156793"
           r="0.69347352" />
        <path
           inkscape:connector-curvature="0"
           inkscape:original-d="m 29.103584,-14.163987 2.221272,0.07213"
           inkscape:path-effect="#path-effect96349"
           id="path96490"
           d="m 29.103584,-14.163987 2.221272,0.07213"
           style="fill:#000000;fill-rule:evenodd;stroke:#000000;stroke-width:0.336985px;stroke-linecap:butt;stroke-linejoin:miter;stroke-opacity:1" />
        <path
           style="fill:#000000;fill-rule:evenodd;stroke:#000000;stroke-width:0.336985px;stroke-linecap:butt;stroke-linejoin:miter;stroke-opacity:1"
           d="m 30.125698,-16.187827 1.158794,1.896432"
           id="path96492"
           inkscape:path-effect="#path-effect96353"
           inkscape:original-d="m 30.125698,-16.187827 1.158794,1.896432"
           inkscape:connector-curvature="0" />
      </g>
      <g
         id="g5893"
         transform="translate(-14.21908,-437.6004)">
        <path
           id="path95664"
           d="m -23.51929,-38.822775 v -0.840038 c 0,-0.320531 0.24663,-0.582221 0.549887,-0.582221 v 0 c 0.30326,0 0.549886,0.26169 0.549886,0.582221 v 0 0.840038 c 0,0.321306 -0.246626,0.58377 -0.549886,0.58377 v 0 c -0.303257,0 -0.549887,-0.262464 -0.549887,-0.58377 z"
           inkscape:connector-curvature="0"
           style="opacity:0.548523;fill:#b3b3b3;stroke-width:0.0420392" />
        <path
           id="path95666"
           d="m -23.51929,-29.777066 v -0.839263 c 0,-0.320532 0.24663,-0.582997 0.549887,-0.582997 v 0 c 0.30326,0 0.549886,0.262465 0.549886,0.582997 v 0 0.839263 c 0,0.322081 -0.246626,0.584542 -0.549886,0.584542 v 0 c -0.303257,0 -0.549887,-0.262461 -0.549887,-0.584542 z"
           inkscape:connector-curvature="0"
           style="opacity:0.548523;fill:#b3b3b3;stroke-width:0.0420392" />
        <path
           id="path95668"
           d="m -20.619691,-37.208506 c -0.213745,-0.227624 -0.213745,-0.598092 0,-0.824167 v 0 l 0.56048,-0.593447 c 0.215207,-0.228398 0.563405,-0.228398 0.778244,0 v 0 c 0.21557,0.228397 0.21557,0.59577 0,0.822619 v 0 l -0.560481,0.594995 c -0.107417,0.11265 -0.248451,0.169943 -0.388754,0.169943 v 0 c -0.141034,0 -0.281337,-0.05729 -0.389489,-0.169943 z"
           inkscape:connector-curvature="0"
           style="opacity:0.548523;fill:#b3b3b3;stroke-width:0.0420392" />
        <path
           id="path95670"
           d="m -26.657472,-30.812212 c -0.213744,-0.226848 -0.213744,-0.596542 0,-0.824939 v 0 l 0.560844,-0.593448 c 0.216301,-0.226849 0.563042,-0.226849 0.778612,0 v 0 c 0.214107,0.229172 0.214107,0.596546 0,0.824944 v 0 l -0.561212,0.593443 c -0.106691,0.113424 -0.248456,0.169946 -0.389122,0.169946 v 0 c -0.140671,4.33e-4 -0.282068,-0.05652 -0.389122,-0.169946 z"
           inkscape:connector-curvature="0"
           style="opacity:0.548523;fill:#b3b3b3;stroke-width:0.0420392" />
        <path
           id="path95672"
           d="m -19.095722,-34.137525 c -0.303988,0 -0.55025,-0.260916 -0.55025,-0.582221 v 0 c 0,-0.322079 0.246262,-0.582994 0.55025,-0.582994 v 0 h 0.792493 c 0.303261,0 0.550618,0.262463 0.550618,0.582994 v 0 c 0,0.321305 -0.247357,0.582221 -0.550618,0.582221 v 0 z"
           inkscape:connector-curvature="0"
           style="opacity:0.548523;fill:#b3b3b3;stroke-width:0.0420392" />
        <path
           id="path95674"
           d="m -27.634479,-34.137525 c -0.303624,0 -0.549887,-0.260528 -0.549887,-0.582221 v 0 c 0,-0.322079 0.246263,-0.582994 0.549887,-0.582994 v 0 h 0.792493 c 0.303257,0 0.549887,0.262463 0.549887,0.582994 v 0 c 0,0.321305 -0.24663,0.582221 -0.549887,0.582221 v 0 z"
           inkscape:connector-curvature="0"
           style="opacity:0.548523;fill:#b3b3b3;stroke-width:0.0420392" />
        <path
           id="path95676"
           d="m -20.059211,-30.812212 -0.56048,-0.594993 c -0.213745,-0.226848 -0.213745,-0.594222 0.0011,-0.823394 v 0 c 0.214471,-0.226849 0.562307,-0.226849 0.777145,0 v 0 l 0.560481,0.593448 c 0.214112,0.228397 0.214112,0.598091 0,0.824939 v 0 c -0.108148,0.113424 -0.248819,0.169946 -0.389122,0.169946 v 0 c -0.140303,4.33e-4 -0.281337,-0.05652 -0.389122,-0.169946 v 0 z"
           inkscape:connector-curvature="0"
           style="opacity:0.548523;fill:#b3b3b3;stroke-width:0.0420392" />
        <path
           id="path95678"
           d="m -26.096628,-37.208506 -0.560844,-0.594995 c -0.213744,-0.226849 -0.213744,-0.59577 0,-0.822619 v 0 c 0.215202,-0.228398 0.563405,-0.228398 0.778244,0 v 0 l 0.561212,0.593447 c 0.214107,0.226075 0.214107,0.596543 0,0.824167 v 0 c -0.108153,0.11265 -0.248456,0.169943 -0.389122,0.169943 v 0 c -0.141034,0 -0.281705,-0.05729 -0.38949,-0.169943 z"
           inkscape:connector-curvature="0"
           style="opacity:0.548523;fill:#b3b3b3;stroke-width:0.0420392" />
        <path
           inkscape:connector-curvature="0"
           d="m -23.096093,-35.37222 -0.413431,-0.40602 c -0.09904,0.216767 -0.233524,0.398592 -0.448583,0.488773 l 0.331871,0.379342 c 0.04394,-0.02239 0.09262,-0.03567 0.144163,-0.03766 z"
           id="path95797"
           style="stroke-width:0.101637" />
        <path
           inkscape:connector-curvature="0"
           d="m -24.04026,-35.476733 c 3.95e-4,-0.0024 2.96e-4,-0.0047 7.9e-4,-0.0072 0.0097,-0.04854 0.03555,-0.09981 0.07662,-0.143431 l 0.141003,-0.149393 c 0.04206,-0.04457 0.09173,-0.07187 0.138534,-0.0816 6.91e-4,-1.05e-4 0.0014,-1.05e-4 0.0021,-2.09e-4 l 0.325847,-1.282505 -1.204845,-0.716943 -0.549596,0.553217 0.860731,0.574454 -0.144163,0.499757 -0.471689,0.152742 -0.54219,-0.91195 -0.522146,0.5823 0.676677,1.276542 z"
           id="path95799"
           style="stroke-width:0.101637" />
        <path
           inkscape:connector-curvature="0"
           d="m -23.173012,-34.686453 -0.02735,-0.02877 c -0.07879,-0.08348 -0.173686,-0.129411 -0.267293,-0.129411 -0.0706,0 -0.135572,0.02751 -0.182672,0.07742 l -2.099543,1.980093 c -0.05342,0.0567 -0.08808,0.148766 -0.09074,0.244282 -0.003,0.105454 0.03259,0.202853 0.100223,0.274516 l 0.257617,0.272947 c 0.06981,0.07396 0.170922,0.116334 0.277661,0.116334 0.0938,0 0.180994,-0.03295 0.233129,-0.0883 l 1.865229,-2.219877 c 0.110591,-0.117171 0.07929,-0.344714 -0.06625,-0.499234 z"
           id="path95801"
           style="stroke-width:0.101637" />
        <path
           inkscape:connector-curvature="0"
           d="m -20.46532,-32.78817 -2.098555,-2.061381 -0.380847,0.418888 c 0.01086,0.09029 -0.0024,0.178059 -0.04275,0.250349 l 1.845382,2.109087 c 0.01027,0.01088 0.02538,0.01548 0.04394,0.01548 0.08986,0 0.260086,-0.11058 0.331081,-0.185696 l 0.141102,-0.149393 c 0.08551,-0.0907 0.2197,-0.334671 0.160652,-0.397337 z m -0.605187,0.377983 c -0.132413,0 -0.239745,-0.113615 -0.239745,-0.253907 0,-0.140292 0.107332,-0.253906 0.239745,-0.253906 0.132314,0 0.239547,0.113614 0.239547,0.253906 0,0.140292 -0.107332,0.253907 -0.239547,0.253907 z"
           id="path95803"
           style="stroke-width:0.101637" />
        <path
           inkscape:connector-curvature="0"
           d="m -20.132659,-36.11741 c -0.06715,-0.07114 -0.175859,-0.07114 -0.243003,0 l -0.06754,0.07156 c -0.05589,-0.08181 -0.148606,-0.220848 -0.137349,-0.266879 0.04957,-0.201284 -0.338289,-0.67834 -0.338289,-0.67834 -0.963718,-1.021065 -1.60781,-0.99805 -1.914007,-0.886318 -0.122934,0.04488 -0.100618,0.07313 0.02745,0.09708 0.928763,0.171782 1.044686,0.752617 0.887094,0.976917 -0.06073,0.08652 -0.0785,0.151695 -0.06774,0.210281 0.0063,0.03452 0.02261,0.06685 0.04621,0.09981 l -1.419411,1.561101 c 0.08205,0.02343 0.16085,0.07103 0.228587,0.142907 l 0.02735,0.02888 c 0.05984,0.0635 0.101803,0.13663 0.128759,0.211641 l 1.403514,-1.543212 c 0.02676,0.02302 0.0545,0.04342 0.08314,0.05932 0.07643,0.04289 0.159567,0.05545 0.251594,0.0067 0.104073,-0.05513 0.411456,0.211223 0.504767,0.282362 6.91e-4,5.23e-4 0.0013,7.33e-4 0.002,0.0013 l -0.05115,0.05409 c -0.06715,0.07114 -0.06715,0.186324 0,0.257463 0.06714,0.07114 0.175858,0.07114 0.243003,0 l 0.405038,-0.42914 c 0.06705,-0.07114 0.06705,-0.186324 0,-0.257464 z"
           id="path95805"
           style="stroke-width:0.101637" />
      </g>
      <g
         id="g5981"
         transform="translate(-68.808388,-416.36711)">
        <path
           id="path14145"
           d="m -0.22961905,-17.561761 c 0,-0.625289 -0.50682684,-1.132116 -1.13124795,-1.132116 h -7.7824823 c -0.6001212,0 -1.0865537,0.486432 -1.0865537,1.086553 v 9.4431218 c 0,0.6252889 0.5068271,1.1321157 1.132116,1.1321157 h 7.7356182 c 0.62528898,0 1.13211582,-0.5068268 1.13211582,-1.1321157 z m -1.12777655,8.5418545 c 0,0.4751502 -0.3857611,0.8604775 -0.8604774,0.8604775 h -6.0242098 c -0.4751501,0 -0.8604774,-0.3857612 -0.8604774,-0.8604775 V -16.73513 c 0,-0.47515 0.3853273,-0.860478 0.8604774,-0.860478 h 6.0242098 c 0.4747163,0 0.8596096,0.385328 0.8596096,0.860478 z"
           inkscape:connector-curvature="0"
           style="stroke-width:0.433927" />
        <path
           inkscape:connector-curvature="0"
           d="m -3.7559379,-10.750915 c 0.02735,-0.585945 -0.011465,-1.223551 -0.6006558,-1.812673 -0.5890529,-0.589122 -1.2267274,-0.628005 -1.8126033,-0.600586 0.02728,-0.585945 -0.011465,-1.223551 -0.6005868,-1.812811 l -0.3166617,0.316524 c 0.1127137,0.112575 0.1986302,0.226117 0.265692,0.341041 l -0.9795448,0.979614 c -0.1149237,-0.06706 -0.2284661,-0.152978 -0.3410415,-0.265692 l -0.3165236,0.316524 c 0.589191,0.589122 1.2267964,0.627867 1.8127414,0.600586 -0.02735,0.585876 0.011465,1.223413 0.6005868,1.812604 0.5891219,0.589191 1.2267273,0.628005 1.8127414,0.600655 -0.02735,0.5858763 0.011327,1.2235508 0.6005177,1.8126728 l 0.3165926,-0.3165236 c -0.1346071,-0.1345381 -0.232679,-0.2703193 -0.3036775,-0.4084487 l 0.9501922,-0.9501925 c 0.1381295,0.07107 0.2739107,0.1691397 0.4084487,0.3036087 l 0.3165236,-0.3165927 c -0.589191,-0.588984 -1.2269346,-0.62766 -1.8127414,-0.60031 z m -2.8628013,-2.386877 c -0.2837179,0.01533 -0.5509983,0.0172 -0.807919,-0.04821 l 0.7597809,-0.759781 c 0.065404,0.256921 0.06347,0.524201 0.048138,0.807988 z m 0.4712285,1.230941 c -0.065404,-0.256921 -0.06354,-0.524133 -0.048207,-0.807919 0.2837869,-0.01533 0.5510673,-0.0172 0.807919,0.04821 z m 0.4193609,0.714681 c -0.1125064,-0.112644 -0.1984229,-0.22598 -0.2655538,-0.341041 l 0.9796138,-0.979476 c 0.1149237,0.06706 0.2284661,0.152978 0.3410416,0.265554 0.080944,0.08094 0.147315,0.162371 0.2040171,0.24442 l -1.0145606,1.01456 c -0.082118,-0.0567 -0.1635452,-0.123073 -0.2445581,-0.204017 z m 1.5227387,0.467706 c -0.3288861,0.01768 -0.6351881,0.01685 -0.9292656,-0.08516 l 0.8441088,-0.844109 c 0.1020086,0.294008 0.1029065,0.600379 0.085157,0.929265 z m 0.4522357,1.1444026 c -0.045376,-0.2303998 -0.04282,-0.4694326 -0.029214,-0.7213806 0.251948,-0.01361 0.490981,-0.01616 0.7213809,0.02921 z"
           id="path14151"
           style="fill:#cccccc;stroke-width:0.0690647" />
        <text
           id="text14185"
           y="-15.366709"
           x="-7.6655345"
           style="font-style:normal;font-variant:normal;font-weight:800;font-stretch:normal;font-size:0.729857px;line-height:0%;font-family:'Hiragino Kaku Gothic StdN';-inkscape-font-specification:'Hiragino Kaku Gothic StdN Ultra-Bold';text-align:start;letter-spacing:-0.104823px;word-spacing:0px;writing-mode:lr-tb;text-anchor:start;fill:#000000;fill-opacity:1;stroke:none;stroke-width:0.0608214"
           xml:space="preserve"><tspan
             style="font-size:1.8868px;line-height:1.25;stroke-width:0.0608214"
             y="-15.366709"
             x="-7.6655345"
             id="tspan14187"
             sodipodi:role="line">BAM</tspan></text>
        <text
           xml:space="preserve"
           style="font-style:normal;font-variant:normal;font-weight:bold;font-stretch:normal;font-size:0.729857px;line-height:0%;font-family:'Helvetica Neue';-inkscape-font-specification:'Helvetica Neue Bold';text-align:start;letter-spacing:0.161444px;word-spacing:0px;writing-mode:lr-tb;text-anchor:start;fill:#000000;fill-opacity:1;stroke:none;stroke-width:0.0608214"
           x="-8.1011801"
           y="-13.354681"
           id="text14191"><tspan
             style="font-size:1.56063px;line-height:1.25;stroke-width:0.0608214"
             sodipodi:role="line"
             id="tspan14193"
             x="-8.1011801"
             y="-13.354681">101101</tspan></text>
        <text
           id="text14197"
           y="-11.870618"
           x="-8.1011801"
           style="font-style:normal;font-variant:normal;font-weight:bold;font-stretch:normal;font-size:0.729857px;line-height:0%;font-family:'Helvetica Neue';-inkscape-font-specification:'Helvetica Neue Bold';text-align:start;letter-spacing:0.161444px;word-spacing:0px;writing-mode:lr-tb;text-anchor:start;fill:#000000;fill-opacity:1;stroke:none;stroke-width:0.0608214"
           xml:space="preserve"><tspan
             style="font-size:1.56063px;line-height:1.25;stroke-width:0.0608214"
             y="-11.870618"
             x="-8.1011801"
             id="tspan14199"
             sodipodi:role="line">110001</tspan></text>
        <text
           xml:space="preserve"
           style="font-style:normal;font-variant:normal;font-weight:bold;font-stretch:normal;font-size:0.729857px;line-height:0%;font-family:'Helvetica Neue';-inkscape-font-specification:'Helvetica Neue Bold';text-align:start;letter-spacing:0.161444px;word-spacing:0px;writing-mode:lr-tb;text-anchor:start;fill:#000000;fill-opacity:1;stroke:none;stroke-width:0.0608214"
           x="-8.1011801"
           y="-10.405584"
           id="text14203"><tspan
             style="font-size:1.56063px;line-height:1.25;stroke-width:0.0608214"
             sodipodi:role="line"
             id="tspan14205"
             x="-8.1011801"
             y="-10.405584">101011</tspan></text>
        <text
           id="text14209"
           y="-8.8834705"
           x="-8.1011801"
           style="font-style:normal;font-variant:normal;font-weight:bold;font-stretch:normal;font-size:0.729857px;line-height:0%;font-family:'Helvetica Neue';-inkscape-font-specification:'Helvetica Neue Bold';text-align:start;letter-spacing:0.161444px;word-spacing:0px;writing-mode:lr-tb;text-anchor:start;fill:#000000;fill-opacity:1;stroke:none;stroke-width:0.0608214"
           xml:space="preserve"><tspan
             style="font-size:1.56063px;line-height:1.25;stroke-width:0.0608214"
             y="-8.8834705"
             x="-8.1011801"
             id="tspan14211"
             sodipodi:role="line">101101</tspan></text>
      </g>
      <g
         id="g5923"
         transform="matrix(1.0697996,0,0,1.0697996,-13.097889,-435.05733)"
         style="stroke-width:0.934754">
        <path
           style="fill:#00007e;fill-opacity:1;fill-rule:evenodd;stroke:#00007e;stroke-width:0.336818px;stroke-linecap:butt;stroke-linejoin:miter;stroke-opacity:1"
           d="m 12.008434,-33.84038 0.98801,-2.161272"
           id="path9283"
           inkscape:path-effect="#path-effect96315"
           inkscape:original-d="m 12.008434,-33.84038 0.98801,-2.161272"
           inkscape:connector-curvature="0" />
        <circle
           r="0.74151236"
           cy="-36.11021"
           cx="13.027832"
           id="circle9285"
           style="fill:#00007e;fill-opacity:1;fill-rule:evenodd;stroke:none;stroke-width:0.0508954;stroke-linecap:round;stroke-linejoin:miter;stroke-miterlimit:4;stroke-dasharray:none;stroke-dashoffset:0;stroke-opacity:1" />
        <circle
           style="fill:#00007e;fill-opacity:1;fill-rule:evenodd;stroke:none;stroke-width:0.0508954;stroke-linecap:round;stroke-linejoin:miter;stroke-miterlimit:4;stroke-dasharray:none;stroke-dashoffset:0;stroke-opacity:1"
           id="circle9287"
           cx="11.854563"
           cy="-33.763691"
           r="0.74151236" />
        <circle
           style="fill:#00007e;fill-opacity:1;fill-rule:evenodd;stroke:none;stroke-width:0.0508954;stroke-linecap:round;stroke-linejoin:miter;stroke-miterlimit:4;stroke-dasharray:none;stroke-dashoffset:0;stroke-opacity:1"
           id="circle9289"
           cx="14.386337"
           cy="-33.825436"
           r="0.74151236" />
        <path
           inkscape:connector-curvature="0"
           inkscape:original-d="m 11.963248,-33.833144 2.375143,0.07713"
           inkscape:path-effect="#path-effect96321"
           id="path9291"
           d="m 11.963248,-33.833144 2.375143,0.07713"
           style="fill:#00007e;fill-opacity:1;fill-rule:evenodd;stroke:#00007e;stroke-width:0.336818px;stroke-linecap:butt;stroke-linejoin:miter;stroke-opacity:1" />
        <path
           style="fill:#00007e;fill-opacity:1;fill-rule:evenodd;stroke:#00007e;stroke-width:0.336818px;stroke-linecap:butt;stroke-linejoin:miter;stroke-opacity:1"
           d="m 13.056165,-35.997182 1.239068,2.027804"
           id="path9293"
           inkscape:path-effect="#path-effect96325"
           inkscape:original-d="m 13.056165,-35.997182 1.239068,2.027804"
           inkscape:connector-curvature="0" />
        <circle
           r="0.74151236"
           cy="-34.767143"
           cx="9.353653"
           id="circle9295"
           style="fill:#00007e;fill-opacity:1;fill-rule:evenodd;stroke:none;stroke-width:0.0508954;stroke-linecap:round;stroke-linejoin:miter;stroke-miterlimit:4;stroke-dasharray:none;stroke-dashoffset:0;stroke-opacity:1" />
        <path
           style="fill:#00007e;fill-opacity:1;fill-rule:evenodd;stroke:#00007e;stroke-width:0.336818px;stroke-linecap:butt;stroke-linejoin:miter;stroke-opacity:1"
           d="m 9.4140241,-34.746165 2.5688689,0.992349"
           id="path9297"
           inkscape:path-effect="#path-effect96331"
           inkscape:original-d="m 9.4140241,-34.746165 2.5688689,0.992349"
           inkscape:connector-curvature="0" />
        <path
           inkscape:connector-curvature="0"
           inkscape:original-d="m 9.3745276,-34.861976 3.7512734,-1.246046"
           inkscape:path-effect="#path-effect96335"
           id="path9299"
           d="m 9.3745276,-34.861976 3.7512734,-1.246046"
           style="fill:#00007e;fill-opacity:1;fill-rule:evenodd;stroke:#00007e;stroke-width:0.336818px;stroke-linecap:butt;stroke-linejoin:miter;stroke-opacity:1" />
      </g>
      <g
         id="g6135"
         transform="matrix(1.2710573,0,0,1.1850832,-81.682586,-413.98639)"
         style="stroke-width:0.814784">
        <path
           inkscape:connector-curvature="0"
           d="m 69.175883,-17.561761 c 0,-0.625289 -0.506827,-1.132116 -1.131248,-1.132116 h -7.782482 c -0.600122,0 -1.086554,0.486432 -1.086554,1.086553 v 9.4431218 c 0,0.6252889 0.506827,1.1321157 1.132116,1.1321157 h 7.735618 c 0.625289,0 1.132116,-0.5068268 1.132116,-1.1321157 z m -1.127777,8.5418545 c 0,0.4751502 -0.385761,0.8604775 -0.860477,0.8604775 h -6.02421 c -0.47515,0 -0.860477,-0.3857612 -0.860477,-0.8604775 V -16.73513 c 0,-0.47515 0.385327,-0.860478 0.860477,-0.860478 h 6.02421 c 0.474716,0 0.85961,0.385328 0.85961,0.860478 z"
           id="path9449"
           style="stroke-width:0.353557" />
        <text
           id="text9495"
           y="-13.219278"
           x="61.304321"
           style="font-style:normal;font-variant:normal;font-weight:bold;font-stretch:normal;font-size:0.729857px;line-height:0%;font-family:'Helvetica Neue';-inkscape-font-specification:'Helvetica Neue Bold';text-align:start;letter-spacing:0.161444px;word-spacing:0px;writing-mode:lr-tb;text-anchor:start;fill:#000000;fill-opacity:1;stroke:none;stroke-width:0.0495564"
           xml:space="preserve"><tspan
             style="font-size:1.56063px;line-height:1.25;stroke-width:0.0495564"
             y="-13.219278"
             x="61.304321"
             id="tspan9497"
             sodipodi:role="line">101101</tspan></text>
        <text
           xml:space="preserve"
           style="font-style:normal;font-variant:normal;font-weight:bold;font-stretch:normal;font-size:0.729857px;line-height:0%;font-family:'Helvetica Neue';-inkscape-font-specification:'Helvetica Neue Bold';text-align:start;letter-spacing:0.161444px;word-spacing:0px;writing-mode:lr-tb;text-anchor:start;fill:#000000;fill-opacity:1;stroke:none;stroke-width:0.0495564"
           x="61.304321"
           y="-11.735216"
           id="text9501"><tspan
             style="font-size:1.56063px;line-height:1.25;stroke-width:0.0495564"
             sodipodi:role="line"
             id="tspan9503"
             x="61.304321"
             y="-11.735216">110001</tspan></text>
        <text
           id="text9507"
           y="-10.270183"
           x="61.304321"
           style="font-style:normal;font-variant:normal;font-weight:bold;font-stretch:normal;font-size:0.729857px;line-height:0%;font-family:'Helvetica Neue';-inkscape-font-specification:'Helvetica Neue Bold';text-align:start;letter-spacing:0.161444px;word-spacing:0px;writing-mode:lr-tb;text-anchor:start;fill:#000000;fill-opacity:1;stroke:none;stroke-width:0.0495564"
           xml:space="preserve"><tspan
             style="font-size:1.56063px;line-height:1.25;stroke-width:0.0495564"
             y="-10.270183"
             x="61.304321"
             id="tspan9509"
             sodipodi:role="line">101011</tspan></text>
        <text
           xml:space="preserve"
           style="font-style:normal;font-variant:normal;font-weight:bold;font-stretch:normal;font-size:0.729857px;line-height:0%;font-family:'Helvetica Neue';-inkscape-font-specification:'Helvetica Neue Bold';text-align:start;letter-spacing:0.161444px;word-spacing:0px;writing-mode:lr-tb;text-anchor:start;fill:#000000;fill-opacity:1;stroke:none;stroke-width:0.0495564"
           x="61.304321"
           y="-14.711354"
           id="text9517"><tspan
             style="font-size:1.56063px;line-height:1.25;stroke-width:0.0495564"
             sodipodi:role="line"
             id="tspan9519"
             x="61.304321"
             y="-14.711354">101011</tspan></text>
        <text
           id="text9521"
           y="-8.7480688"
           x="61.304321"
           style="font-style:normal;font-variant:normal;font-weight:bold;font-stretch:normal;font-size:0.729857px;line-height:0%;font-family:'Helvetica Neue';-inkscape-font-specification:'Helvetica Neue Bold';text-align:start;letter-spacing:0.161444px;word-spacing:0px;writing-mode:lr-tb;text-anchor:start;fill:#000000;fill-opacity:1;stroke:none;stroke-width:0.0495564"
           xml:space="preserve"><tspan
             style="font-size:1.56063px;line-height:1.25;stroke-width:0.0495564"
             y="-8.7480688"
             x="61.304321"
             id="tspan9523"
             sodipodi:role="line">101101</tspan></text>
        <text
           xml:space="preserve"
           style="font-style:normal;font-variant:normal;font-weight:bold;font-stretch:normal;font-size:0.729857px;line-height:0%;font-family:'Helvetica Neue';-inkscape-font-specification:'Helvetica Neue Bold';text-align:start;letter-spacing:0.161444px;word-spacing:0px;writing-mode:lr-tb;text-anchor:start;fill:#000000;fill-opacity:1;stroke:none;stroke-width:0.0495564"
           x="61.304321"
           y="-16.168076"
           id="text9525"><tspan
             style="font-size:1.56063px;line-height:1.25;stroke-width:0.0495564"
             sodipodi:role="line"
             id="tspan9527"
             x="61.304321"
             y="-16.168076">101101</tspan></text>
      </g>
      <g
         id="g6311"
         transform="translate(-234.68857,-352.23867)">
        <path
           style="stroke-width:0.529167;stroke-miterlimit:4;stroke-dasharray:none"
           inkscape:connector-curvature="0"
           d="m 166.10472,-38.969877 c 0,-0.643599 -0.54083,-1.165266 -1.20715,-1.165266 h -8.30464 c -0.64039,0 -1.15946,0.500676 -1.15946,1.118369 v 9.719629 c 0,0.643598 0.54083,1.165265 1.20808,1.165265 h 8.25463 c 0.66725,0 1.20808,-0.521667 1.20808,-1.165265 z m -1.20344,8.791971 c 0,0.489064 -0.41165,0.885674 -0.91821,0.885674 h -6.42841 c -0.50703,0 -0.91821,-0.397057 -0.91821,-0.885674 v -7.941135 c 0,-0.489064 0.41118,-0.885674 0.91821,-0.885674 h 6.42841 c 0.50656,0 0.91728,0.39661 0.91728,0.885674 z"
           id="path9628" />
        <text
           id="text9666"
           y="-36.731323"
           x="157.71321"
           style="font-style:normal;font-variant:normal;font-weight:800;font-stretch:normal;font-size:0.595991px;line-height:0%;font-family:'Hiragino Kaku Gothic StdN';-inkscape-font-specification:'Hiragino Kaku Gothic StdN Ultra-Bold';text-align:start;letter-spacing:-0.113888px;word-spacing:0px;writing-mode:lr-tb;text-anchor:start;fill:#000000;fill-opacity:1;stroke:none;stroke-width:0.0496659"
           xml:space="preserve"><tspan
             style="font-size:2.04999px;line-height:1.25;stroke-width:0.0496659"
             y="-36.731323"
             x="157.71321"
             id="tspan9668"
             sodipodi:role="line">JSON</tspan></text>
        <text
           xml:space="preserve"
           style="font-style:normal;font-variant:normal;font-weight:800;font-stretch:normal;font-size:0.595991px;line-height:0%;font-family:'Hiragino Kaku Gothic StdN';-inkscape-font-specification:'Hiragino Kaku Gothic StdN Ultra-Bold';text-align:start;letter-spacing:-0.113888px;word-spacing:0px;writing-mode:lr-tb;text-anchor:start;fill:#000000;fill-opacity:1;stroke:none;stroke-width:0.0496659"
           x="157.33025"
           y="-31.522881"
           id="text9961"><tspan
             style="font-size:4.63021px;line-height:1.25;stroke-width:0.0496659"
             sodipodi:role="line"
             id="tspan9963"
             x="157.33025"
             y="-31.522881">{..}</tspan></text>
      </g>
      <g
         id="g6285"
         transform="matrix(1.5920248,0,0,1.5920248,-299.00205,-451.91892)"
         style="stroke-width:0.62813">
        <text
           xml:space="preserve"
           style="font-style:normal;font-variant:normal;font-weight:800;font-stretch:normal;font-size:0.775241px;line-height:0%;font-family:'Hiragino Kaku Gothic StdN';-inkscape-font-specification:'Hiragino Kaku Gothic StdN Ultra-Bold';text-align:start;letter-spacing:0.110313px;word-spacing:0px;writing-mode:lr-tb;text-anchor:start;fill:#000000;fill-opacity:1;stroke:none;stroke-width:0.0405794"
           x="135.76021"
           y="-16.655882"
           id="text9724"><tspan
             sodipodi:role="line"
             id="tspan9726"
             x="135.76021"
             y="-16.655882"
             style="font-style:normal;font-weight:normal;font-size:0.649639px;line-height:1.25;-inkscape-font-specification:'Hiragino Kaku Gothic StdN Ultra-Bold';stroke-width:0.0405794">ATCGATCG   CGATCGAT</tspan></text>
        <text
           id="text9728"
           y="-15.897685"
           x="135.2421"
           style="font-style:normal;font-variant:normal;font-weight:800;font-stretch:normal;font-size:0.775241px;line-height:0%;font-family:'Hiragino Kaku Gothic StdN';-inkscape-font-specification:'Hiragino Kaku Gothic StdN Ultra-Bold';text-align:start;letter-spacing:0.110313px;word-spacing:0px;writing-mode:lr-tb;text-anchor:start;fill:#000000;fill-opacity:1;stroke:none;stroke-width:0.0405794"
           xml:space="preserve"><tspan
             style="font-size:0.649639px;line-height:1.25;stroke-width:0.0405794"
             y="-15.897685"
             x="135.2421"
             id="tspan9730"
             sodipodi:role="line">ATCGAT              TCGAT</tspan></text>
        <text
           xml:space="preserve"
           style="font-style:normal;font-variant:normal;font-weight:800;font-stretch:normal;font-size:0.775241px;line-height:0%;font-family:'Hiragino Kaku Gothic StdN';-inkscape-font-specification:'Hiragino Kaku Gothic StdN Ultra-Bold';text-align:start;letter-spacing:0.110313px;word-spacing:0px;writing-mode:lr-tb;text-anchor:start;fill:#000000;fill-opacity:1;stroke:none;stroke-width:0.0405794"
           x="135.78548"
           y="-15.139486"
           id="text9732"><tspan
             style="font-size:0.649639px;line-height:1.25;stroke-width:0.0405794"
             sodipodi:role="line"
             id="tspan9734"
             x="135.78548"
             y="-15.139486">ATCGA               TCGAT</tspan></text>
        <text
           id="text9736"
           y="-14.368651"
           x="135.19156"
           style="font-style:normal;font-variant:normal;font-weight:800;font-stretch:normal;font-size:0.775241px;line-height:0%;font-family:'Hiragino Kaku Gothic StdN';-inkscape-font-specification:'Hiragino Kaku Gothic StdN Ultra-Bold';text-align:start;letter-spacing:0.110313px;word-spacing:0px;writing-mode:lr-tb;text-anchor:start;fill:#000000;fill-opacity:1;stroke:none;stroke-width:0.0405794"
           xml:space="preserve"><tspan
             style="font-size:0.649639px;line-height:1.25;stroke-width:0.0405794"
             y="-14.368651"
             x="135.19156"
             id="tspan9738"
             sodipodi:role="line">ATCGA                  CGAT</tspan></text>
        <text
           id="text9740"
           y="-13.606886"
           x="135.76021"
           style="font-style:normal;font-variant:normal;font-weight:800;font-stretch:normal;font-size:0.775241px;line-height:0%;font-family:'Hiragino Kaku Gothic StdN';-inkscape-font-specification:'Hiragino Kaku Gothic StdN Ultra-Bold';text-align:start;letter-spacing:0.110313px;word-spacing:0px;writing-mode:lr-tb;text-anchor:start;fill:#000000;fill-opacity:1;stroke:none;stroke-width:0.0405794"
           xml:space="preserve"><tspan
             style="font-size:0.649639px;line-height:1.25;stroke-width:0.0405794"
             y="-13.606886"
             x="135.76021"
             id="tspan9742"
             sodipodi:role="line">ATCG                 TCGAT</tspan></text>
        <text
           xml:space="preserve"
           style="font-style:normal;font-variant:normal;font-weight:800;font-stretch:normal;font-size:0.775241px;line-height:0%;font-family:'Hiragino Kaku Gothic StdN';-inkscape-font-specification:'Hiragino Kaku Gothic StdN Ultra-Bold';text-align:start;letter-spacing:0.110313px;word-spacing:0px;writing-mode:lr-tb;text-anchor:start;fill:#000000;fill-opacity:1;stroke:none;stroke-width:0.0405794"
           x="135.2421"
           y="-12.848689"
           id="text9744"><tspan
             style="font-size:0.649639px;line-height:1.25;stroke-width:0.0405794"
             sodipodi:role="line"
             id="tspan9746"
             x="135.2421"
             y="-12.848689">ATCGA                 CGAT</tspan></text>
        <text
           id="text9748"
           y="-12.09049"
           x="135.78548"
           style="font-style:normal;font-variant:normal;font-weight:800;font-stretch:normal;font-size:0.775241px;line-height:0%;font-family:'Hiragino Kaku Gothic StdN';-inkscape-font-specification:'Hiragino Kaku Gothic StdN Ultra-Bold';text-align:start;letter-spacing:0.110313px;word-spacing:0px;writing-mode:lr-tb;text-anchor:start;fill:#000000;fill-opacity:1;stroke:none;stroke-width:0.0405794"
           xml:space="preserve"><tspan
             style="font-size:0.649639px;line-height:1.25;stroke-width:0.0405794"
             y="-12.09049"
             x="135.78548"
             id="tspan9750"
             sodipodi:role="line">ATCGA               TCGAT</tspan></text>
        <text
           xml:space="preserve"
           style="font-style:normal;font-variant:normal;font-weight:800;font-stretch:normal;font-size:0.775241px;line-height:0%;font-family:'Hiragino Kaku Gothic StdN';-inkscape-font-specification:'Hiragino Kaku Gothic StdN Ultra-Bold';text-align:start;letter-spacing:0.110313px;word-spacing:0px;writing-mode:lr-tb;text-anchor:start;fill:#000000;fill-opacity:1;stroke:none;stroke-width:0.0405794"
           x="135.19156"
           y="-11.319656"
           id="text9752"><tspan
             style="font-size:0.649639px;line-height:1.25;stroke-width:0.0405794"
             sodipodi:role="line"
             id="tspan9754"
             x="135.19156"
             y="-11.319656">ATCGAT            ATCGAT</tspan></text>
        <path
           id="path9762"
           d="m 146.97943,-8.7281303 -2.2468,-2.2814557 c -0.23117,-0.24827 -0.49061,-0.375816 -0.70848,-0.385 0.63298,-0.621075 1.05656,-1.462005 1.14085,-2.414609 0.18798,-2.124403 -1.38179,-3.998946 -3.50619,-4.186927 -2.1244,-0.187981 -3.99895,1.381788 -4.18693,3.506191 -0.18798,2.124402 1.38179,3.998946 3.50619,4.186926 0.95261,0.08429 1.85485,-0.185034 2.57743,-0.699145 -0.0292,0.216104 0.0508,0.493905 0.25461,0.765075 l 1.85147,2.6125164 c 0.31904,0.4244389 0.89409,0.5087192 1.27787,0.1873367 0.38378,-0.3213826 0.40181,-0.9022985 0.04,-1.2909084 z m -5.8879,-2.8570607 c -1.41626,-0.125319 -2.46278,-1.375029 -2.33746,-2.791284 0.12532,-1.416255 1.37503,-2.46278 2.79128,-2.337461 1.41626,0.125319 2.46278,1.37503 2.33746,2.791285 -0.12532,1.416255 -1.37501,2.462781 -2.79128,2.33746 z"
           inkscape:connector-curvature="0"
           style="stroke-width:0.0126333" />
        <text
           xml:space="preserve"
           style="font-style:normal;font-variant:normal;font-weight:800;font-stretch:normal;font-size:0.775241px;line-height:0%;font-family:'Hiragino Kaku Gothic StdN';-inkscape-font-specification:'Hiragino Kaku Gothic StdN Ultra-Bold';text-align:start;letter-spacing:0.23534px;word-spacing:0px;writing-mode:lr-tb;text-anchor:start;fill:#000000;fill-opacity:1;stroke:none;stroke-width:0.0405794"
           x="139.38641"
           y="-15.189362"
           id="text9764"><tspan
             style="font-size:1.38593px;line-height:1.25;stroke-width:0.0405794"
             sodipodi:role="line"
             id="tspan9766"
             x="139.38641"
             y="-15.189362">ATC</tspan></text>
        <text
           id="text9768"
           y="-13.623254"
           x="138.10506"
           style="font-style:normal;font-variant:normal;font-weight:800;font-stretch:normal;font-size:0.775241px;line-height:0%;font-family:'Hiragino Kaku Gothic StdN';-inkscape-font-specification:'Hiragino Kaku Gothic StdN Ultra-Bold';text-align:start;letter-spacing:0.23534px;word-spacing:0px;writing-mode:lr-tb;text-anchor:start;fill:#000000;fill-opacity:1;stroke:none;stroke-width:0.0405794"
           xml:space="preserve"><tspan
             style="font-size:1.38593px;line-height:1.25;stroke-width:0.0405794"
             y="-13.623254"
             x="138.10506"
             id="tspan9770"
             sodipodi:role="line">ATCGA</tspan></text>
        <text
           xml:space="preserve"
           style="font-style:normal;font-variant:normal;font-weight:800;font-stretch:normal;font-size:0.775241px;line-height:0%;font-family:'Hiragino Kaku Gothic StdN';-inkscape-font-specification:'Hiragino Kaku Gothic StdN Ultra-Bold';text-align:start;letter-spacing:0.23534px;word-spacing:0px;writing-mode:lr-tb;text-anchor:start;fill:#000000;fill-opacity:1;stroke:none;stroke-width:0.0405794"
           x="139.35083"
           y="-12.057146"
           id="text9772"><tspan
             style="font-size:1.38593px;line-height:1.25;stroke-width:0.0405794"
             sodipodi:role="line"
             id="tspan9774"
             x="139.35083"
             y="-12.057146">CGA</tspan></text>
      </g>
    </g>
  </g>
</svg>
